<svg width="1902" height="1111" viewBox="0 0 1902 1111" fill="none" xmlns="http://www.w3.org/2000/svg">
<rect x="792.666" y="159.334" width="158.333" height="791.667" stroke="white" stroke-width="2"/>
<rect x="634.334" y="159.334" width="158.333" height="950" stroke="white" stroke-width="2"/>
<rect x="476" y="1" width="158.333" height="950" stroke="white" stroke-width="2"/>
<rect x="317.666" y="159.334" width="158.333" height="950" stroke="white" stroke-width="2"/>
<rect x="159.334" y="1" width="158.333" height="1108.33" stroke="white" stroke-width="2"/>
<rect x="951" y="1" width="158.333" height="950" stroke="white" stroke-width="2"/>
<rect x="1109.33" y="1" width="158.333" height="1108.33" stroke="white" stroke-width="2"/>
<rect x="1267.67" y="159.334" width="158.333" height="950" stroke="white" stroke-width="2"/>
<rect x="1426" y="1" width="158.333" height="950" stroke="white" stroke-width="2"/>
<rect x="1584.33" y="1" width="158.333" height="1108.33" stroke="white" stroke-width="2"/>
<rect x="1" y="317.666" width="158.333" height="1900" transform="rotate(-90 1 317.666)" stroke="white" stroke-width="2"/>
<rect x="159.334" y="476" width="158.333" height="1741.67" transform="rotate(-90 159.334 476)" stroke="white" stroke-width="2"/>
<rect x="1" y="792.666" width="158.333" height="1741.67" transform="rotate(-90 1 792.666)" stroke="white" stroke-width="2"/>
<rect x="1" y="951" width="158.333" height="1900" transform="rotate(-90 1 951)" stroke="white" stroke-width="2"/>
</svg>
