<svg width="1550" height="1050" viewBox="0 0 1550 1050" fill="none" xmlns="http://www.w3.org/2000/svg">
<path d="M750 100H800V950H750V100Z" fill="#D9D9D9"/>
<path d="M700 50H750V950H700V50Z" fill="#D9D9D9"/>
<path d="M650 0H700V1000H650V0Z" fill="#D9D9D9"/>
<path d="M600 0H650V1000H600V0Z" fill="#D9D9D9"/>
<path d="M550 50H600V1000H550V50Z" fill="#D9D9D9"/>
<path d="M500 50H550V1000H500V50Z" fill="#D9D9D9"/>
<path d="M450 0H500V950H450V0Z" fill="#D9D9D9"/>
<path d="M400 0H450V1000H400V0Z" fill="#D9D9D9"/>
<path d="M350 50H400V1000H350V50Z" fill="#D9D9D9"/>
<path d="M300 50H350V1050H300V50Z" fill="#D9D9D9"/>
<path d="M250 100H300V1050H250V100Z" fill="#D9D9D9"/>
<path d="M200 100H250V950H200V100Z" fill="#D9D9D9"/>
<path d="M150 100H200V1000H150V100Z" fill="#D9D9D9"/>
<path d="M100 50H150V1000H100V50Z" fill="#D9D9D9"/>
<path d="M50 100H100V1000H50V100Z" fill="#D9D9D9"/>
<path d="M1450 50H1500V1000H1450V50Z" fill="#D9D9D9"/>
<path d="M1400 50H1450V1000H1400V50Z" fill="#D9D9D9"/>
<path d="M1350 0H1400V1000H1350V0Z" fill="#D9D9D9"/>
<path d="M1250 0H1300V950H1250V0Z" fill="#D9D9D9"/>
<path d="M1300 0H1350V950H1300V0Z" fill="#D9D9D9"/>
<path d="M1200 50H1250V1000H1200V50Z" fill="#D9D9D9"/>
<path d="M1150 50H1200V950H1150V50Z" fill="#D9D9D9"/>
<path d="M1100 0H1150V1000H1100V0Z" fill="#D9D9D9"/>
<path d="M1050 0H1100V1050H1050V0Z" fill="#D9D9D9"/>
<path d="M1000 0H1050V1050H1000V0Z" fill="#D9D9D9"/>
<path d="M950 50H1000V1050H950V50Z" fill="#D9D9D9"/>
<path d="M900 100H950V1050H900V100Z" fill="#D9D9D9"/>
<path d="M850 100H900V1050H850V100Z" fill="#D9D9D9"/>
<path d="M800 100H850V1000H800V100Z" fill="#D9D9D9"/>
<path d="M0 150H50V250H0V150Z" fill="#D9D9D9"/>
<path d="M0 350H50V600H0V350Z" fill="#D9D9D9"/>
<path d="M0 650H50V750H0V650Z" fill="#D9D9D9"/>
<path d="M0 850H50V950H0V850Z" fill="#D9D9D9"/>
<path d="M1500 100H1550V200H1500V100Z" fill="#D9D9D9"/>
<path d="M1500 200H1550V250H1500V200Z" fill="#D9D9D9"/>
<path d="M1500 400H1550V550H1500V400Z" fill="#D9D9D9"/>
<path d="M1500 600H1550V800H1500V600Z" fill="#D9D9D9"/>
<path d="M1500 850H1550V950H1500V850Z" fill="#D9D9D9"/>
<path d="M300 50H750V100H300V50Z" fill="#D9D9D9"/>
<path d="M950 50H1500V100H950V50Z" fill="#D9D9D9"/>
<path d="M50 100H1550V150H50V100Z" fill="#D9D9D9"/>
<path d="M0 150H1550V200H0V150Z" fill="#D9D9D9"/>
<path d="M0 200H1550V250H0V200Z" fill="#D9D9D9"/>
<path d="M50 250H1500V300H50V250Z" fill="#D9D9D9"/>
<path d="M50 300H1500V350H50V300Z" fill="#D9D9D9"/>
<path d="M0 350H1500V400H0V350Z" fill="#D9D9D9"/>
<path d="M0 350H1500V400H0V350Z" fill="#D9D9D9"/>
<path d="M0 400H1550V450H0V400Z" fill="#D9D9D9"/>
<path d="M0 450H1550V500H0V450Z" fill="#D9D9D9"/>
<path d="M0 500H1550V550H0V500Z" fill="#D9D9D9"/>
<path d="M0 550H1500V600H0V550Z" fill="#D9D9D9"/>
<path d="M50 600H1550V650H50V600Z" fill="#D9D9D9"/>
<path d="M0 650H1550V700H0V650Z" fill="#D9D9D9"/>
<path d="M0 700H1550V750H0V700Z" fill="#D9D9D9"/>
<path d="M50 750H1550V800H50V750Z" fill="#D9D9D9"/>
<path d="M50 800H1550V850H50V800Z" fill="#D9D9D9"/>
<path d="M0 850H1550V900H0V850Z" fill="#D9D9D9"/>
<path d="M0 850H1550V900H0V850Z" fill="#D9D9D9"/>
<path d="M0 900H1550V950H0V900Z" fill="#D9D9D9"/>
<path d="M50 950H200V1000H50V950Z" fill="#D9D9D9"/>
<path d="M250 950H450V1000H250V950Z" fill="#D9D9D9"/>
<path d="M250 1000H350V1050H250V1000Z" fill="#D9D9D9"/>
<path d="M500 950H700V1000H500V950Z" fill="#D9D9D9"/>
<path d="M800 950H1150V1000H800V950Z" fill="#D9D9D9"/>
<path d="M850 1000H1100V1050H850V1000Z" fill="#D9D9D9"/>
<path d="M1350 950H1500V1000H1350V950Z" fill="#D9D9D9"/>
<path d="M400 0H500V50H400V0Z" fill="#D9D9D9"/>
<path d="M600 0H700V50H600V0Z" fill="#D9D9D9"/>
<path d="M1000 0H1150V50H1000V0Z" fill="#D9D9D9"/>
<path d="M1250 0H1400V50H1250V0Z" fill="#D9D9D9"/>
<path d="M1500 100H1550V250H1500V100Z" fill="#D9D9D9"/>
<path d="M1500 400H1550V550H1500V400Z" fill="#D9D9D9"/>
<path d="M1500 600H1550V950H1500V600Z" fill="#D9D9D9"/>
<path d="M0 150H50V250H0V150Z" fill="#D9D9D9"/>
<path d="M0 350H50V600H0V350Z" fill="#D9D9D9"/>
<path d="M0 650H50V750H0V650Z" fill="#D9D9D9"/>
<path d="M0 850H50V950H0V850Z" fill="#D9D9D9"/>
</svg>
