<svg version="1.2" xmlns="http://www.w3.org/2000/svg" viewBox="0 0 500 500" width="500" height="500">
	<defs>
		<clipPath clipPathUnits="userSpaceOnUse" id="cp1">
			<path d="m375.14 344.11c-13.4-42.76-48.29-62.15-62.9-61.3-14.62 0.85-18.18 13.26-16.13 26.12 0 0 6.46 37.94-3.66 39.56-3.23 0.52-6.74-0.56-10.11-2.47-3.55 10.34-11.2 27.56-25.15 38.1 18.5 11.96 43.45 19.64 63.32 2.84 7.49-6.34 12.09-13.88 14.74-21.71 5.9 6.02 14.18 11.41 20.62 13.15 11.55 3.12 19.87-2.26 24.25-6.36l0.22-0.54c-0.7-9.29-2.44-18.59-5.2-27.39z"/>
		</clipPath>
	</defs>
	<style>
		.s0 { fill: none;stroke: #d4d4d4;stroke-linecap: round;stroke-linejoin: round;stroke-width: .8 } 
		.s1 { fill: none;stroke: #000000;stroke-linecap: round;stroke-linejoin: round;stroke-width: .8 } 
		.s2 { fill: #d4d4d4 } 
		.s3 { fill: #ffffff;stroke: #d4d4d4;stroke-linecap: round;stroke-linejoin: round;stroke-width: .8 } 
		.s4 { fill: none;stroke: #d4d4d4;stroke-miterlimit:10;stroke-width: .8 } 
		.s5 { fill: #d4d4d4;stroke: #000000;stroke-linecap: round;stroke-linejoin: round;stroke-width: .8 } 
		.s6 { fill: #000000 } 
		.s7 { fill: #ffffff;stroke: #000000;stroke-linecap: round;stroke-linejoin: round;stroke-width: .8 } 
		.s8 { fill: #ffffff } 
		.s9 { fill: none;stroke: #000000;stroke-miterlimit:10 } 
		.s10 { fill: #ed5d1c;stroke: #000000;stroke-linecap: round;stroke-linejoin: round;stroke-width: .8 } 
		.s11 { fill: #d4d4d4;stroke: #000000;stroke-linecap: round;stroke-linejoin: round;stroke-width: .7 } 
		.s12 { fill: #ed5d1c } 
		.s13 { fill: #000000;stroke: #000000;stroke-linecap: round;stroke-linejoin: round;stroke-width: .8 } 
	</style>
	<g id="OBJECTS">
		<g>
			<path class="s0" d="m164.99 349.58c0 0 52.91-20.9 105.62 18.8 52.71 39.7 117.04-21.17 118.3-64.79 0.65-22.52-23.38-11.73-5.92 2.99 25.45 21.47 45.75 15.21 58.41-17.45 12.67-32.65 23.09-32.07 30.48-31.27"/>
			<path class="s0" d="m427.91 367.73c0 0 35.83 24.83 27.12 41.92-8.71 17.09-22.27-12.83 13.29-13.31"/>
			<path class="s0" d="m240.38 288.05c0 0-10.76-18.63-22.51-13.45-11.75 5.18 5.67 15.75 3.76-3.43-2.37-23.89-20.14-13.38-20.14-13.38"/>
			<path fill-rule="evenodd" class="s1" d="m329.43 271.77l3.29-20.77"/>
			<path fill-rule="evenodd" class="s1" d="m436.1 336.3l17.38-3.88"/>
			<path fill-rule="evenodd" class="s2" d="m188.93 132.36l-18.44-5.69 8.45-7.88z"/>
			<path fill-rule="evenodd" class="s1" d="m276.46 80.99l-8.33-26.28"/>
			<path fill-rule="evenodd" class="s1" d="m298.48 78.11l4.5-17.85"/>
			<path fill-rule="evenodd" class="s2" d="m53.07 363.64l-17.79-7.58 8.58-12.05z"/>
			<path fill-rule="evenodd" class="s2" d="m461.73 303.26l-8.25-4.22 4.13-7.41z"/>
			<path fill-rule="evenodd" class="s2" d="m377.62 207.17l5.56-14.96 9.66 11.5z"/>
			<path fill-rule="evenodd" class="s1" d="m349.64 276.56l8.5-8.57"/>
			<path fill-rule="evenodd" class="s1" d="m44.18 389.51l13.57-9.18"/>
		</g>
		<g>
			<g>
				<g>
					<path fill-rule="evenodd" class="s3" d="m112.45 39.5v83.34h-60.19v-83.34z"/>
					<path fill-rule="evenodd" class="s0" d="m106.14 45.49v71.35h-47.57v-71.35z"/>
					<g>
						<path fill-rule="evenodd" class="s0" d="m112.45 39.5l-6.31 5.99"/>
						<path fill-rule="evenodd" class="s0" d="m112.45 122.84l-6.31-6"/>
						<path fill-rule="evenodd" class="s0" d="m52.26 122.84l6.31-6"/>
						<path fill-rule="evenodd" class="s0" d="m58.57 45.49l-5.94-5.65"/>
					</g>
				</g>
				<path fill-rule="evenodd" class="s2" d="m66.99 52.27h30.73v4.87h-30.73z"/>
				<g>
					<path fill-rule="evenodd" class="s4" d="m96.6 109.12c-2.3 0-4.16-1.86-4.16-4.16 0-2.3 1.86-4.16 4.16-4.16 2.31 0 4.17 1.86 4.17 4.16 0 2.3-1.86 4.16-4.17 4.16z"/>
					<path class="s4" d="m99.03 104.96c0 1.34-1.09 2.42-2.43 2.42-1.33 0-2.42-1.08-2.42-2.42 0-1.34 1.09-2.42 2.42-2.42 1.34 0 2.43 1.08 2.43 2.42z"/>
				</g>
				<g>
					<path fill-rule="evenodd" class="s0" d="m63.99 63.63h36.73"/>
					<path fill-rule="evenodd" class="s0" d="m63.99 69.42h36.73"/>
					<path fill-rule="evenodd" class="s0" d="m63.99 75.2h36.73"/>
					<path fill-rule="evenodd" class="s0" d="m63.99 80.99h36.73"/>
					<path fill-rule="evenodd" class="s0" d="m63.99 86.77h36.73"/>
					<path fill-rule="evenodd" class="s0" d="m63.99 92.55h36.73"/>
					<path fill-rule="evenodd" class="s0" d="m63.99 98.34h26.83"/>
					<path fill-rule="evenodd" class="s0" d="m63.99 104.12h19.06"/>
				</g>
			</g>
			<g>
				<g>
					<path fill-rule="evenodd" class="s3" d="m194.05 96.05h-69.1v-49.9h69.1z"/>
					<path fill-rule="evenodd" class="s0" d="m189.08 90.83h-59.16v-39.46h59.16z"/>
					<g>
						<path fill-rule="evenodd" class="s0" d="m194.05 96.05l-4.97-5.22"/>
						<path fill-rule="evenodd" class="s0" d="m124.95 96.05l4.97-5.22"/>
						<path fill-rule="evenodd" class="s0" d="m124.95 46.15l4.97 5.22"/>
						<path fill-rule="evenodd" class="s0" d="m189.08 51.37l4.69-4.92"/>
					</g>
				</g>
				<path fill-rule="evenodd" class="s2" d="m140.53 56.23h39.24v4.03h-39.24z"/>
				<g>
					<path class="s4" d="m182.03 81.56c0 1.9-1.54 3.45-3.45 3.45-1.9 0-3.45-1.55-3.45-3.45 0-1.91 1.55-3.45 3.45-3.45 1.91 0 3.45 1.54 3.45 3.45z"/>
					<path class="s4" d="m180.59 81.56c0 1.11-0.9 2.01-2.01 2.01-1.1 0-2-0.9-2-2.01 0-1.11 0.9-2.01 2-2.01 1.11 0 2.01 0.9 2.01 2.01z"/>
				</g>
				<g>
					<path fill-rule="evenodd" class="s0" d="m136.7 65.65h46.9"/>
					<path fill-rule="evenodd" class="s0" d="m136.7 70.44h46.9"/>
					<path fill-rule="evenodd" class="s0" d="m136.7 75.24h46.9"/>
					<path fill-rule="evenodd" class="s0" d="m136.7 79.96h34.27"/>
					<path fill-rule="evenodd" class="s0" d="m136.7 83.82h15.6"/>
				</g>
			</g>
		</g>
		<g>
			<g>
				<path fill-rule="evenodd" class="s5" d="m121.63 332.03h7.82v72.33h-7.82z"/>
				<path class="s6" d="m136.74 338.55h-20.52c-5.94 0-10.76-4.81-10.76-10.75 0-5.94 4.82-10.75 10.76-10.75h20.52c5.94 0 10.75 4.81 10.75 10.75 0 5.94-4.81 10.75-10.75 10.75z"/>
				<path class="s7" d="m170.9 324.54h-88.84c-8.31 0-15.04-6.73-15.04-15.03v-7.3h118.92v7.3c0 8.3-6.74 15.03-15.04 15.03z"/>
				<g>
					<path class="s6" d="m135.55 289.14h-18.14c-1.53 0-2.77-1.24-2.77-2.77 0-1.53 1.24-2.77 2.77-2.77h18.14c1.52 0 2.76 1.24 2.76 2.77 0.01 1.53-1.23 2.77-2.76 2.77z"/>
					<path class="s6" d="m135.55 282.14h-18.14c-1.53 0-2.77-1.24-2.77-2.77 0-1.53 1.24-2.77 2.77-2.77h18.14c1.52 0 2.76 1.24 2.76 2.77 0.01 1.53-1.23 2.77-2.76 2.77z"/>
					<path fill-rule="evenodd" class="s6" d="m117.41 279.37h18.14v7.49h-18.14z"/>
				</g>
				<path class="s5" d="m187.4 308.58h-121.84c-5.94 0-10.76-4.82-10.76-10.75 0-5.94 4.82-10.75 10.76-10.75h121.84c5.94 0 10.75 4.81 10.75 10.75 0 5.93-4.81 10.75-10.75 10.75z"/>
				<path class="s5" d="m165.56 166.21c-8.55-6.09-26.21-7.16-39.08-7.03-12.87-0.13-30.53 0.94-39.08 7.03-14.33 10.2-25.84 59.72-22.59 80.79 3.26 21.07 20.64 31.49 28.46 31.06 6.14-0.34 25.29-1.05 33.21-1.33 7.92 0.28 27.07 0.99 33.21 1.33 7.82 0.44 25.2-9.99 28.45-31.06 3.26-21.07-8.25-70.59-22.58-80.79z"/>
				<path class="s6" d="m129.14 410.55h-5.32c-3.07 0-5.56-2.49-5.56-5.56v-25.7c0-3.07 2.49-5.56 5.56-5.56h5.32c3.07 0 5.56 2.49 5.56 5.56v25.7c0 3.07-2.49 5.56-5.56 5.56z"/>
				<g>
					<path class="s6" d="m190.01 405.66h-127.06c-2.07 0-3.75-1.67-3.75-3.74 0-2.07 1.68-3.75 3.75-3.75h127.06c2.07 0 3.74 1.68 3.74 3.75 0.01 2.06-1.67 3.74-3.74 3.74z"/>
					<g>
						<path fill-rule="evenodd" class="s6" d="m60.17 401.1h4.72v29h-4.72z"/>
						<g>
							<path fill-rule="evenodd" class="s6" d="m66.77 437.59c-4.18 0-7.57-3.38-7.57-7.57 0-4.18 3.39-7.57 7.57-7.57 4.19 0 7.57 3.39 7.57 7.57 0 4.19-3.38 7.57-7.57 7.57z"/>
							<path fill-rule="evenodd" class="s8" d="m66.77 434.46c-2.45 0-4.44-1.98-4.44-4.44 0-2.45 1.99-4.44 4.44-4.44 2.46 0 4.44 1.99 4.44 4.44 0 2.46-1.98 4.44-4.44 4.44z"/>
						</g>
					</g>
					<g>
						<path fill-rule="evenodd" class="s6" d="m93.17 401.1h4.72v29h-4.72z"/>
						<g>
							<path fill-rule="evenodd" class="s6" d="m99.77 437.59c-4.18 0-7.57-3.38-7.57-7.57 0-4.18 3.39-7.57 7.57-7.57 4.19 0 7.57 3.39 7.57 7.57 0 4.19-3.38 7.57-7.57 7.57z"/>
							<path fill-rule="evenodd" class="s8" d="m99.77 434.46c-2.45 0-4.44-1.98-4.44-4.44 0-2.45 1.99-4.44 4.44-4.44 2.46 0 4.44 1.99 4.44 4.44 0 2.46-1.98 4.44-4.44 4.44z"/>
						</g>
					</g>
					<g>
						<path fill-rule="evenodd" class="s6" d="m192.79 430.1h-4.73v-29h4.73z"/>
						<g>
							<path fill-rule="evenodd" class="s6" d="m186.19 437.59c-4.19 0-7.57-3.38-7.57-7.57 0-4.18 3.38-7.57 7.57-7.57 4.18 0 7.57 3.39 7.57 7.57 0 4.19-3.39 7.57-7.57 7.57z"/>
							<path fill-rule="evenodd" class="s8" d="m186.19 434.46c-2.46 0-4.44-1.98-4.44-4.44 0-2.45 1.98-4.44 4.44-4.44 2.45 0 4.43 1.99 4.43 4.44 0 2.46-1.98 4.44-4.43 4.44z"/>
						</g>
					</g>
					<g>
						<path fill-rule="evenodd" class="s6" d="m159.79 430.1h-4.73v-29h4.73z"/>
						<g>
							<path fill-rule="evenodd" class="s6" d="m153.19 437.59c-4.19 0-7.57-3.38-7.57-7.57 0-4.18 3.38-7.57 7.57-7.57 4.18 0 7.57 3.39 7.57 7.57 0 4.19-3.39 7.57-7.57 7.57z"/>
							<path fill-rule="evenodd" class="s8" d="m153.19 434.46c-2.46 0-4.44-1.98-4.44-4.44 0-2.45 1.98-4.44 4.44-4.44 2.45 0 4.43 1.99 4.43 4.44 0 2.46-1.98 4.44-4.43 4.44z"/>
						</g>
					</g>
				</g>
				<g>
					<path fill-rule="evenodd" class="s9" d="m129.5 335.62l22.16 12.7"/>
					<path class="s6" d="m151.7 351.38c1.97 1.14 4.12 1.12 4.8-0.05 0.67-1.17-0.38-3.04-2.36-4.18-1.97-1.14-4.12-1.12-4.79 0.05-0.68 1.17 0.38 3.04 2.35 4.18z"/>
				</g>
			</g>
			<g>
				<path fill-rule="evenodd" class="s5" d="m262.55 191.05l-5.34 33.2h45.53l-5.33-33.2z"/>
				<g>
					<path class="s5" d="m340.87 202.75h-121.78c-9.03 0-16.35-7.32-16.35-16.35v-70.98c0-9.03 7.32-16.35 16.35-16.35h121.78c9.03 0 16.35 7.32 16.35 16.35v70.98c0 9.03-7.32 16.35-16.35 16.35z"/>
				</g>
				<path fill-rule="evenodd" class="s1" d="m279.98 137.95c-4.8 0-8.67-3.87-8.67-8.66 0-4.8 3.87-8.67 8.67-8.67 4.79 0 8.66 3.87 8.66 8.67 0 4.79-3.87 8.66-8.66 8.66z"/>
			</g>
			<g>
				<g>
					<g>
						<path class="s10" d="m157.22 195.35c-2.98-0.6-5.21-2.08-4.96-3.3l6.45-32.15c0.25-1.22 2.87-1.73 5.86-1.13 2.98 0.6 5.65 2.21 5.4 3.43l-6.89 32.02c-0.25 1.22-2.87 1.73-5.86 1.13z"/>
						<path fill-rule="evenodd" class="s11" d="m153.81 182.61l11.38 2.28-0.74 3.7-11.38-2.29z"/>
						<g>
							<path class="s8" d="m158.88 159.36l7.66-10.13 3.4 12.44c0.09 0.33-0.57 0.49-1.35 0.32l-8.65-1.83c-0.76-0.16-1.26-0.54-1.06-0.8z"/>
							<path fill-rule="evenodd" class="s12" d="m162.68 154.63l5.64 1.13-1.78-6.53z"/>
							<path class="s1" d="m158.88 159.36l7.66-10.13 3.4 12.44c0.09 0.33-0.57 0.49-1.35 0.32l-8.65-1.83c-0.76-0.16-1.26-0.54-1.06-0.8z"/>
						</g>
						<path class="s7" d="m152.81 187.63l-1.1 5.51c-0.31 1.55 1.98 3.31 5.11 3.94 3.13 0.63 5.93-0.11 6.24-1.66l1.17-5.5z"/>
						<path fill-rule="evenodd" class="s11" d="m153.07 186.3l11.38 2.29-0.72 3.58-11.38-2.29z"/>
					</g>
					<g>
						<path class="s13" d="m147.65 200.18c-2.95 0.77-5.6 0.41-5.91-0.8l-8.23-31.74c-0.31-1.21 1.82-2.81 4.77-3.57 2.95-0.76 6.05-0.48 6.37 0.73l7.77 31.81c0.31 1.21-1.83 2.81-4.77 3.57z"/>
						<path fill-rule="evenodd" class="s5" d="m139.03 190.21l11.23-2.92 0.95 3.65-11.24 2.91z"/>
						<g>
							<path class="s8" d="m133.42 167.08l2.47-12.45 8.49 9.71c0.23 0.25-0.3 0.68-1.08 0.88l-8.58 2.12c-0.75 0.19-1.36 0.06-1.3-0.26z"/>
							<path fill-rule="evenodd" class="s6" d="m134.77 161.17l5.58-1.44-4.46-5.1z"/>
							<path class="s1" d="m133.42 167.08l2.47-12.45 8.49 9.71c0.23 0.25-0.3 0.68-1.08 0.88l-8.58 2.12c-0.75 0.19-1.36 0.06-1.3-0.26z"/>
						</g>
						<path class="s7" d="m140.31 195.16l1.41 5.45c0.39 1.53 3.22 2.11 6.32 1.31 3.09-0.8 5.28-2.69 4.88-4.22l-1.34-5.46z"/>
						<path fill-rule="evenodd" class="s5" d="m139.97 193.85l11.24-2.91 0.92 3.53-11.24 2.92z"/>
					</g>
					<g>
						<path class="s5" d="m149.62 200.04c-2.07 0-3.75-1.68-3.75-3.76v-55.53c0-2.07 1.68-3.75 3.75-3.75 2.07 0 3.75 1.68 3.75 3.75v55.53c0 2.08-1.68 3.76-3.75 3.76z"/>
						<path fill-rule="evenodd" class="s1" d="m145.87 152.5h7.5"/>
						<path class="s5" d="m153.85 165.02c-1.09 0-1.97-0.88-1.97-1.97v-16.63c0-1.09 0.88-1.97 1.97-1.97 1.09 0 1.97 0.88 1.97 1.97v16.63c0 1.09-0.88 1.97-1.97 1.97z"/>
					</g>
				</g>
				<g>
					<path class="s7" d="m165.6 224.25h-26.41c-3.93 0-7.11-3.19-7.11-7.11v-27.16c0-3.93 3.19-7.11 7.11-7.11h26.41c3.93 0 7.11 3.18 7.11 7.11v27.16c0 3.92-3.18 7.11-7.11 7.11z"/>
				</g>
			</g>
			<g>
				<g>
					<path fill-rule="evenodd" class="s7" d="m83.94 227.86h13.12v231.76h-13.12z"/>
					<path fill-rule="evenodd" class="s7" d="m402.94 227.86h13.12v231.76h-13.12z"/>
				</g>
				<path fill-rule="evenodd" class="s7" d="m51.88 224.25h396.24v15.27h-396.24z"/>
			</g>
			<g>
				<g>
					<g>
						<path class="s7" d="m431.6 110.32h-42.13c-5.38 0-9.75 4.36-9.75 9.75v17.2 6.01 18.84l9.91-9.09h41.97c5.38 0 9.74-4.37 9.74-9.75v-23.21c0-5.38-4.36-9.75-9.74-9.75z"/>
					</g>
					<g>
						<path class="s7" d="m443.74 96.45h-42.13c-5.38 0-9.75 4.36-9.75 9.74v17.2 6.02 18.84l9.91-9.1h41.97c5.38 0 9.74-4.36 9.74-9.74v-23.22c0-5.38-4.36-9.74-9.74-9.74z"/>
						<g>
							<path class="s6" d="m413.03 118.58c0 2.34-1.9 4.23-4.24 4.23-2.34 0-4.23-1.9-4.23-4.23 0-2.34 1.89-4.24 4.23-4.24 2.34 0 4.24 1.9 4.24 4.24z"/>
							<path class="s6" d="m427.77 118.58c0 2.34-1.9 4.23-4.24 4.23-2.34 0-4.23-1.9-4.23-4.23 0-2.34 1.89-4.24 4.23-4.24 2.34 0 4.24 1.9 4.24 4.24z"/>
							<path class="s6" d="m442.51 118.58c0 2.34-1.89 4.23-4.24 4.23-2.33 0-4.23-1.9-4.23-4.23 0-2.34 1.89-4.24 4.23-4.24 2.35 0 4.24 1.9 4.24 4.24z"/>
						</g>
					</g>
				</g>
				<g>
					<path class="s7" d="m376.5 42.49h-36.29c-4.63 0-8.39 3.76-8.39 8.4v14.82 5.18 16.23l8.53-7.84h36.15c4.64 0 8.4-3.75 8.4-8.39v-20c0-4.64-3.76-8.4-8.4-8.4z"/>
					<g>
						<path class="s6" d="m350.06 61.56c0 2.01-1.64 3.65-3.65 3.65-2.02 0-3.65-1.64-3.65-3.65 0-2.02 1.63-3.65 3.65-3.65 2.01-0.01 3.65 1.63 3.65 3.65z"/>
						<path class="s6" d="m362.75 61.56c0 2.01-1.63 3.65-3.65 3.65-2.01 0-3.65-1.64-3.65-3.65 0-2.02 1.64-3.65 3.65-3.65 2.02-0.01 3.65 1.63 3.65 3.65z"/>
						<path class="s6" d="m375.45 61.56c0 2.01-1.63 3.65-3.65 3.65-2.01 0-3.65-1.64-3.65-3.65 0-2.02 1.64-3.65 3.65-3.65 2.02-0.01 3.65 1.63 3.65 3.65z"/>
					</g>
				</g>
			</g>
		</g>
		<g>
			<g>
				<path class="s7" d="m249.35 404.67c14.69 22.96 40.75 42.3 69.84 35.61 29.5-6.78 42.22-41.55 39.84-76.62l-0.21-2.59c-4.31 4.04-12.08 9.23-23.46 6.16-17.41-4.71-32.98-27.67-47.56-47.46-14.58-19.78-40.73-36.58-62.76-11.21-22.03 25.37-34.15 60.84-37.74 77.22-0.51 2.34-1.18 4.34-1.97 6.07 11.91 2.83 45.86 11.79 62.66 25.74 0.51-4.61 1.34-14.28 1.34-14.28l2.09-20.69"/>
				<g>
					<path class="s12" d="m248.66 410.19c-17.31-15.86-48.23-20.67-61.96-22.06-4.1 14.02-14.41 14.12-21.55 18.13-7.52 4.22-12.3 12.57-8.94 24.77 3.35 12.21 26.29 19.39 53.36 19.49 27.08 0.11 34.85-15.95 37.55-27.2 0.56-2.34 1.08-7.08 1.54-13.13z"/>
					<path class="s8" d="m247.69 420.08q-0.16-0.58-0.17-0.59c0 0-10.66-6.01-22.48-1.34-11.79 4.67-13.28 22.41-13.28 22.48-40.98-1.67-56.3-19.99-56.44-20.15-0.42 3.12-0.19 6.63 0.89 10.55 3.35 12.21 26.29 19.39 53.36 19.5 27.08 0.1 34.85-15.96 37.55-27.2q0.29-1.23 0.57-3.25z"/>
					<g>
						<path class="s1" d="m155.32 420.48c0 0 21.9 26.49 83.88 18.91"/>
						<path class="s1" d="m211.75 440.63c0 0 1.47-17.8 13.29-22.48 11.82-4.67 22.48 1.34 22.48 1.34"/>
						<path class="s1" d="m169.2 404.39c0 0 11.04 2.56 16.04 9.94"/>
						<path class="s1" d="m179.75 399.14c0 0 9.04 1.73 11.93 7.02"/>
					</g>
					<path class="s1" d="m248.66 410.19c-17.31-15.86-48.23-20.67-61.96-22.06-4.1 14.02-14.41 14.12-21.55 18.13-7.52 4.22-12.3 12.57-8.94 24.77 3.35 12.21 26.29 19.39 53.36 19.49 27.08 0.11 34.85-15.95 37.55-27.2 0.56-2.34 1.08-7.08 1.54-13.13z"/>
				</g>
			</g>
			<g>
				<path fill-rule="evenodd" class="s7" d="m294.16 288.77c-8.62 8.99-22.85 9.29-31.84 0.67-8.99-8.61-9.29-22.84-0.67-31.83 8.62-8.99 22.85-9.29 31.83-0.67 8.99 8.61 9.29 22.84 0.68 31.83z"/>
				<path class="s6" d="m298.69 264.55c-2.82-6.76-8.55-11.42-15.13-13.13 1.09-1.63 2.16-3.68 1.32-4.5-1.49-1.46-4.35 1.99-4.35 1.99 0 0-1.46-4.31-3.81-3-1.43 0.79-0.67 3.11 0.15 4.8-2.55 0.12-5.13 0.68-7.62 1.72-9.02 3.75-14.3 12.69-13.84 21.91 3.4-2.82 7.31-6.99 8.53-12 0 0 11.13 11.12 28.27 4.07l6.05 16.4c2.62-5.55 2.97-12.14 0.43-18.26z"/>
				<g>
					<path class="s8" d="m297.29 266.28c1.19 2.85-0.16 6.12-3 7.3-2.85 1.19-6.12-0.16-7.3-3-1.19-2.85 0.16-6.12 3-7.3 2.85-1.19 6.12 0.16 7.3 3z"/>
					<path class="s1" d="m288.48 269.95c-0.84-2.02 0.11-4.34 2.14-5.18 2.02-0.84 4.34 0.11 5.18 2.13 0.84 2.03-0.11 4.35-2.13 5.19"/>
				</g>
			</g>
			<g>
				<path class="s6" d="m276.23 272.51c0.5 1.2 0.17 2.48-0.74 2.86-0.9 0.37-2.04-0.3-2.54-1.49-0.5-1.2-0.17-2.48 0.73-2.86 0.91-0.38 2.05 0.29 2.55 1.49z"/>
				<path class="s6" d="m263.36 275c0.47 1.12 0.16 2.32-0.69 2.67-0.85 0.35-1.92-0.27-2.38-1.4-0.47-1.12-0.16-2.32 0.69-2.67 0.84-0.35 1.91 0.27 2.38 1.4z"/>
				<path fill-rule="evenodd" class="s1" d="m266.72 270.57l-1.48 7.16 4.41-0.71"/>
				<path class="s1" d="m266.42 283.45c0 0 3.6-1.7 6.28-2.28"/>
				<path class="s12" d="m284.88 276.73c0 2.25-1.83 4.08-4.08 4.08-2.25 0-4.08-1.83-4.08-4.08 0-2.25 1.83-4.08 4.08-4.08 2.25 0 4.08 1.83 4.08 4.08z"/>
				<path class="s12" d="m263.75 281.59c0-1.93-1.56-3.49-3.49-3.49-1.41 0-2.63 0.86-3.17 2.08q0.24 0.74 0.53 1.48 0.73 1.72 1.72 3.27 0.44 0.13 0.92 0.14c1.93 0 3.49-1.56 3.49-3.48z"/>
			</g>
			<g>
				<path class="s7" d="m269.16 413.99c14.9 23.29 41.33 42.91 70.83 36.12 29.93-6.87 42.83-42.15 40.41-77.71l-0.21-2.64c-4.38 4.1-12.25 9.37-23.8 6.25-17.66-4.77-33.45-28.07-48.24-48.14-14.79-20.06-41.31-37.1-63.65-11.37-22.35 25.73-34.65 61.71-38.29 78.33-0.52 2.38-1.2 4.4-1.99 6.15 12.08 2.87 46.51 11.97 63.55 26.12 0.52-4.68 1.36-14.5 1.36-14.5l2.12-20.98"/>
				<g>
					<path class="s12" d="m268.46 419.59c-17.57-16.09-48.93-20.97-62.86-22.37-4.15 14.22-14.61 14.31-21.85 18.38-7.63 4.28-12.48 12.75-9.07 25.13 3.4 12.38 26.66 19.67 54.12 19.77 27.47 0.11 35.36-16.18 38.09-27.59 0.57-2.37 1.09-7.19 1.57-13.32z"/>
					<path class="s8" d="m267.46 429.62q-0.16-0.59-0.16-0.6c0 0-10.82-6.1-22.8-1.35-11.97 4.73-13.48 22.72-13.48 22.79-41.56-1.69-57.11-20.27-57.24-20.43-0.43 3.16-0.2 6.72 0.9 10.7 3.4 12.38 26.66 19.67 54.12 19.77 27.47 0.11 35.36-16.19 38.09-27.59q0.3-1.24 0.57-3.29z"/>
					<g>
						<path class="s1" d="m173.77 430.02c0 0 22.22 26.88 85.09 19.19"/>
						<path class="s1" d="m231.02 450.47c0 0 1.49-18.06 13.48-22.8 11.98-4.75 22.8 1.35 22.8 1.35"/>
						<path class="s1" d="m187.86 413.71c0 0 11.19 2.59 16.26 10.08"/>
						<path class="s1" d="m198.55 408.38c0 0 9.17 1.75 12.11 7.12"/>
					</g>
					<path class="s1" d="m268.46 419.59c-17.57-16.09-48.93-20.97-62.86-22.37-4.15 14.22-14.61 14.31-21.85 18.38-7.63 4.28-12.48 12.75-9.07 25.13 3.4 12.38 26.66 19.67 54.12 19.77 27.47 0.11 35.36-16.18 38.09-27.59 0.57-2.37 1.09-7.19 1.57-13.32z"/>
				</g>
			</g>
			<g>
				<g>
					<g>
						<path class="s1" d="m331.78 310.97c0 0 20.71 48.93-11.28 75.99-31.98 27.06-77.18-9.38-87.35-24.93-10.16-15.55-7.54-23.12-4.93-24.66 4.93-2.92 11.98 10.86 11.98 10.86"/>
						<path class="s1" d="m335.25 365.25c5.9 6.02 14.18 11.41 20.62 13.15 11.54 3.12 19.87-2.26 24.25-6.36l0.22-0.54c-0.7-9.29-2.44-18.59-5.2-27.39-13.4-42.76-48.28-62.15-62.9-61.3-14.62 0.85-18.18 13.26-16.13 26.12 0 0 6.47 37.94-3.66 39.56-10.12 1.63-22.99-12.43-25.76-18.65-2.77-6.23-11.16-17.11-14.7-9.15"/>
					</g>
					<path class="s1" d="m260.73 330.29c0 0-6.69-9.66-12.74-12.38-6.06-2.72-8.2-0.05-9.03 3.25"/>
					<path class="s1" d="m247.19 341.39c0 0-9.07-14.28-14.02-13.44-4.27 0.72-5.53 5.42-3.4 9.02"/>
					<path class="s1" d="m251.99 332.74c0 0-5.32-11.04-14.02-11.63-4.53-0.31-5.43 3.3-5.25 6.83"/>
				</g>
				<path class="s8" d="m375.14 344.11c-13.4-42.76-48.29-62.15-62.9-61.3-14.62 0.85-18.18 13.26-16.13 26.12 0 0 6.46 37.94-3.66 39.56-10.12 1.63-22.99-12.43-25.76-18.66-2.75-6.19-11.08-17-14.65-9.24-1.33-1.11-2.7-2.07-4.05-2.68-6.06-2.72-8.2-0.05-9.03 3.25l0.29 0.12q-0.63-0.13-1.28-0.18c-4.53-0.3-5.43 3.31-5.25 6.84l0.23 0.06c-4.08 0.85-5.27 5.44-3.18 8.97q-0.8-0.03-1.55 0.4c-2.61 1.54-5.23 9.11 4.93 24.66 10.17 15.55 55.37 51.99 87.35 24.93 7.5-6.34 12.1-13.88 14.75-21.71 5.9 6.02 14.18 11.41 20.62 13.15 11.54 3.12 19.87-2.26 24.25-6.36l0.22-0.54c-0.7-9.29-2.44-18.59-5.2-27.39zm-138.28-15.13l0.07 0.01q-0.03 0-0.06 0zm-5.55 8.39l0.84 0.21q-0.39-0.01-0.84-0.21z"/>
				<g>
					<path class="s5" d="m274.52 340.02c-2.36 20.89-18.41 31.91-27.58 36.56 4.32 3.6 9.34 7.18 14.79 10.3 17.9-11.63 23.73-28.29 25.6-38.75-4.47-1.2-9.06-4.48-12.81-8.11z"/>
					<path fill-rule="evenodd" class="s1" d="m254.1 372.32l13.36 10.34"/>
					<path fill-rule="evenodd" class="s1" d="m262.67 365.04l12.58 9.77"/>
					<path fill-rule="evenodd" class="s1" d="m268.96 356.76l11.84 8.28"/>
					<path fill-rule="evenodd" class="s1" d="m272.94 347.69l12.57 7.88"/>
				</g>
				<g>
					<g id="Clip-Path" clip-path="url(#cp1)">
						<g>
							<path fill-rule="evenodd" class="s0" d="m273.11 398.17c-3.12 0-5.65-2.52-5.65-5.64 0-3.12 2.53-5.65 5.65-5.65 3.12 0 5.64 2.53 5.64 5.65 0 3.12-2.52 5.64-5.64 5.64z"/>
							<path class="s0" d="m300.45 367.73c0 3.11-2.52 5.64-5.64 5.64-3.12 0-5.64-2.53-5.64-5.64 0-3.12 2.52-5.65 5.64-5.65 3.12 0 5.64 2.53 5.64 5.65z"/>
							<path class="s0" d="m312.94 391.32c0 3.12-2.52 5.64-5.64 5.64-3.11 0-5.64-2.52-5.64-5.64 0-3.11 2.53-5.64 5.64-5.64 3.12 0 5.64 2.52 5.64 5.64z"/>
							<path class="s0" d="m331.08 364.29c0 3.11-2.53 5.64-5.64 5.64-3.12 0-5.65-2.53-5.65-5.64 0-3.12 2.53-5.65 5.65-5.65 3.11 0 5.64 2.53 5.64 5.65z"/>
							<path class="s0" d="m303.1 342.04c0 3.12-2.53 5.65-5.65 5.65-3.11 0-5.64-2.53-5.64-5.65 0-3.11 2.53-5.64 5.64-5.64 3.12 0 5.65 2.53 5.65 5.64z"/>
							<path class="s0" d="m327.45 331.82c0 3.12-2.53 5.65-5.64 5.65-3.12 0-5.64-2.53-5.64-5.65 0-3.11 2.52-5.64 5.64-5.64 3.11 0 5.64 2.53 5.64 5.64z"/>
							<path class="s0" d="m303.1 308.58c0 3.11-2.53 5.64-5.65 5.64-3.11 0-5.64-2.53-5.64-5.64 0-3.12 2.53-5.65 5.64-5.65 3.12 0 5.65 2.53 5.65 5.65z"/>
							<path fill-rule="evenodd" class="s0" d="m312.04 289.09c-3.12 0-5.64-2.52-5.64-5.64 0-3.12 2.52-5.65 5.64-5.65 3.12 0 5.65 2.53 5.65 5.65 0 3.12-2.53 5.64-5.65 5.64z"/>
							<path class="s0" d="m327.45 302.21c0 3.12-2.53 5.64-5.64 5.64-3.12 0-5.64-2.52-5.64-5.64 0-3.11 2.52-5.64 5.64-5.64 3.11 0 5.64 2.53 5.64 5.64z"/>
							<path class="s0" d="m352.23 303.49c0 3.11-2.53 5.64-5.65 5.64-3.11 0-5.64-2.53-5.64-5.64 0-3.12 2.53-5.65 5.64-5.65 3.12 0 5.65 2.53 5.65 5.65z"/>
							<path class="s0" d="m372.91 330.29c0 3.11-2.52 5.64-5.64 5.64-3.12 0-5.64-2.53-5.64-5.64 0-3.12 2.52-5.65 5.64-5.65 3.12 0 5.64 2.53 5.64 5.65z"/>
							<path class="s0" d="m368.21 356.76c0 3.12-2.52 5.65-5.64 5.65-3.12 0-5.64-2.53-5.64-5.65 0-3.11 2.52-5.64 5.64-5.64 3.12 0 5.64 2.53 5.64 5.64z"/>
							<path fill-rule="evenodd" class="s0" d="m345.66 379.01c-3.12 0-5.64-2.52-5.64-5.64 0-3.12 2.52-5.64 5.64-5.64 3.12 0 5.65 2.52 5.65 5.64 0 3.12-2.53 5.64-5.65 5.64z"/>
							<path class="s0" d="m385.98 369.93c0 3.11-2.53 5.64-5.64 5.64-3.12 0-5.64-2.53-5.64-5.64 0-3.12 2.52-5.64 5.64-5.64 3.11 0 5.64 2.52 5.64 5.64z"/>
							<path class="s2" d="m340.02 341.01q-0.89 0.01-1.7 0.25 0.03 0.36 0.05 0.8 0.78-0.28 1.65-0.3c2.9 0 5.27 2.37 5.27 5.27 0 2.91-2.36 5.27-5.27 5.27q-0.96-0.01-1.81-0.34-0.04 0.39-0.08 0.78 0.89 0.3 1.89 0.31c3.32 0 6.02-2.7 6.02-6.02 0-3.32-2.7-6.02-6.02-6.02z"/>
							<path fill-rule="evenodd" class="s0" d="m344.01 328.99c-3.12 0-5.64-2.52-5.64-5.64 0-3.12 2.52-5.64 5.64-5.64 3.12 0 5.65 2.52 5.65 5.64 0 3.12-2.53 5.64-5.65 5.64z"/>
						</g>
					</g>
				</g>
				<g>
					<path class="s1" d="m331.78 310.97c0 0 20.71 48.93-11.28 75.99-31.98 27.06-77.18-9.38-87.35-24.93-10.16-15.55-7.54-23.12-4.93-24.66 4.93-2.92 11.98 10.86 11.98 10.86"/>
					<path class="s1" d="m335.25 365.25c5.9 6.02 14.18 11.41 20.62 13.15 11.54 3.12 19.87-2.26 24.25-6.36l0.22-0.54c-0.7-9.29-2.44-18.59-5.2-27.39-13.4-42.76-48.28-62.15-62.9-61.3-14.62 0.85-18.18 13.26-16.13 26.12 0 0 6.47 37.94-3.66 39.56-10.12 1.63-22.99-12.43-25.76-18.65-2.77-6.23-11.16-17.11-14.7-9.15"/>
					<path class="s1" d="m260.73 330.29c0 0-6.69-9.66-12.74-12.38-6.06-2.72-8.2-0.05-9.03 3.25"/>
					<path class="s1" d="m247.19 341.39c0 0-9.07-14.28-14.02-13.44-4.27 0.72-5.53 5.42-3.4 9.02"/>
					<path class="s1" d="m251.99 332.74c0 0-5.32-11.04-14.02-11.63-4.53-0.31-5.43 3.3-5.25 6.83"/>
				</g>
			</g>
			<g>
				<path class="s8" d="m223.82 305.13c-1.9 0.65-3.14 3.24-3.77 4.96q-0.72 0.11-1.49 0.43c-2.3 0.97-3.35 3.27-3.83 4.91-3.2 0.68-5.75 4.68-5.75 4.68 0 0-0.78 1.98-0.42 3.85-2.17 0.18-4.31 2.05-4.47 5.2 0 0-0.89 4.42 3.24 5.09 3.41 0.55 5.68-4.79 4.93-7.86 0 0 3.71 1.24 6.35-2.08 0.7-0.89 0.92-2.55 0.7-4.2 2.35-0.04 5.77-2.84 5.85-5.85q0.01-0.7-0.18-1.34c1.62-0.46 3.57-1.41 3.84-3.34 0.47-3.38-2.09-5.44-5-4.45z"/>
				<g>
					<path class="s1" d="m204.09 329.16c0 0-0.89 4.42 3.24 5.09 4.14 0.67 6.62-7.35 4.02-9.45-2.59-2.1-7.02-0.22-7.26 4.36z"/>
					<path class="s1" d="m212.27 326.39c0 0 3.7 1.24 6.34-2.08 1.72-2.16 0.61-8.9-3.02-8.98-3.64-0.07-5.6 3.2-6.56 5.03-0.42 0.8-0.83 1.72-0.47 3.59"/>
					<path class="s1" d="m219.31 320.11c2.36-0.03 5.77-2.83 5.85-5.85 0.08-3.01-2.83-5.33-6.6-3.74-2.2 0.93-3.26 3.07-3.76 4.69"/>
					<path class="s1" d="m220.08 310c0.64-1.71 1.87-4.23 3.74-4.87 2.91-0.99 5.47 1.07 5.01 4.45-0.27 1.91-2.18 2.86-3.8 3.33"/>
				</g>
			</g>
		</g>
	</g>
</svg>