<svg version="1.2" xmlns="http://www.w3.org/2000/svg" viewBox="0 0 500 500" width="500" height="500">
	<style>
		.s0 { fill: #000000 } 
		.s1 { fill: #ffffff } 
		.s2 { fill: none;stroke: #000000;stroke-linecap: round;stroke-linejoin: round;stroke-width: .8 } 
		.s3 { fill: none;stroke: #d4d4d4;stroke-linecap: round;stroke-linejoin: round;stroke-width: .8 } 
		.s4 { fill: #000000;stroke: #000000;stroke-linecap: round;stroke-linejoin: round;stroke-width: .8 } 
		.s5 { fill: #d4d4d4;stroke: #000000;stroke-linecap: round;stroke-linejoin: round;stroke-width: .7 } 
		.s6 { fill: #ffffff;stroke: #000000;stroke-linecap: round;stroke-linejoin: round;stroke-width: .8 } 
		.s7 { fill: #d4d4d4;stroke: #000000;stroke-linecap: round;stroke-linejoin: round;stroke-width: .8 } 
		.s8 { fill: none;stroke: #ed5d1c;stroke-linecap: round;stroke-linejoin: round } 
		.s9 { fill: #ffffff;stroke: #000000;stroke-linecap: round;stroke-linejoin: round;stroke-width: .7 } 
		.s10 { fill: #ffffff;stroke: #000000;stroke-miterlimit:10;stroke-width: .8 } 
		.s11 { fill: none;stroke: #000000;stroke-linecap: round;stroke-linejoin: round } 
		.s12 { fill: #ed5d1c } 
		.s13 { fill: none;stroke: #ffffff;stroke-linecap: round;stroke-linejoin: round;stroke-width: .8 } 
		.s14 { fill: #ffffff;stroke: #000000;stroke-linecap: round;stroke-linejoin: round } 
		.s15 { fill: #d4d4d4 } 
		.s16 { fill: #d4d4d4;stroke: #000000;stroke-miterlimit:10;stroke-width: .8 } 
		.s17 { fill: #ed5d1c;stroke: #000000;stroke-miterlimit:10;stroke-width: .8 } 
		.s18 { fill: #fafafa;stroke: #000000;stroke-linecap: round;stroke-linejoin: round;stroke-width: .8 } 
	</style>
	<g id="OBJECTS">
		<g>
			<g>
				<path class="s0" d="m189.39 342.06c0 0-103.14 8.6-132.32-43.63-29.17-52.23-7.54-93.67 16.53-112.88 24.07-19.21 61.17-11.95 79.24-61.66 18.07-49.71 71.79-75.86 126.12-66.26 54.34 9.6 71.83 42.35 65.5 81.29-6.32 38.93-5.28 56.41 35.63 65.55 40.91 9.15 54.88 96.62-2.87 128.21-57.74 31.59-118.25 20.79-133.45 16.25-15.2-4.53-38.52-7.37-54.38-6.87z"/>
				<path class="s0" d="m377.16 112.64c-5.73 1.38-18.32-0.87-21.95-13.86-5-17.86 17.24-26.05 28.29-16.5 11.06 9.54 7.8 26.94-6.34 30.36z"/>
			</g>
			<g>
				<path fill-rule="evenodd" class="s1" d="m121.26 178.45l13.77 9 5.74-16.42-0.34 18.1 17.94-1.95-15.64 7.82 7.75 16.43-11.24-12.61-6.3 15.02 0.07-15.52-13.34 7.04 10.52-10.91-12.24-3.16 13.02-0.12z"/>
				<path fill-rule="evenodd" class="s1" d="m178.01 123.6l10.09 6.58 4.2-12.01-0.26 13.25 13.14-1.43-11.45 5.72 5.67 12.03-8.23-9.24-4.61 11 0.05-11.36-9.76 5.15 7.7-7.99-8.96-2.3 9.53-0.1z"/>
				<path fill-rule="evenodd" class="s1" d="m266.73 231.63l14.98 9.78 6.23-17.84-0.38 19.67 19.51-2.12-17 8.5 8.42 17.86-12.22-13.72-6.84 16.33 0.07-16.86-14.49 7.65 11.43-11.87-13.3-3.42 14.15-0.14z"/>
				<path fill-rule="evenodd" class="s1" d="m233.25 186.53l6.07 3.97 2.52-7.23-0.15 7.97 7.9-0.86-6.88 3.44 3.41 7.24-4.95-5.56-2.78 6.62 0.03-6.84-5.87 3.1 4.63-4.8-5.39-1.39 5.74-0.06z"/>
				<path fill-rule="evenodd" class="s1" d="m229.92 78.78l11.27 7.36 4.7-13.43-0.29 14.81 14.68-1.6-12.79 6.4 6.34 13.44-9.2-10.32-5.15 12.28 0.05-12.69-10.9 5.76 8.6-8.93-10.01-2.58 10.65-0.1z"/>
			</g>
			<g>
				<path class="s1" d="m328.54 220.99c0 1.4-1.14 2.54-2.54 2.54-1.4 0-2.54-1.14-2.54-2.54 0-1.4 1.14-2.54 2.54-2.54 1.4 0 2.54 1.14 2.54 2.54z"/>
				<path class="s1" d="m131.94 236.52c0 1.44-1.17 2.62-2.61 2.62-1.45 0-2.62-1.18-2.62-2.62 0-1.45 1.17-2.62 2.62-2.62 1.44 0 2.61 1.17 2.61 2.62z"/>
				<path fill-rule="evenodd" class="s1" d="m80.64 202.12c-0.61 0-1.1-0.5-1.1-1.11 0-0.6 0.49-1.1 1.1-1.1 0.61 0 1.1 0.5 1.1 1.1 0 0.61-0.49 1.11-1.1 1.11z"/>
				<path class="s1" d="m61.64 249.63c0 0.65-0.53 1.18-1.19 1.18-0.65 0-1.19-0.53-1.19-1.18 0-0.66 0.54-1.19 1.19-1.19 0.65 0 1.19 0.53 1.19 1.19z"/>
				<path class="s1" d="m177.05 169.31c0 1.6-1.29 2.9-2.89 2.9-1.6 0-2.9-1.3-2.9-2.9 0-1.6 1.3-2.89 2.9-2.89 1.6 0 2.89 1.29 2.89 2.89z"/>
				<path class="s1" d="m232.68 140.42c0 0.64-0.52 1.17-1.17 1.17-0.65 0-1.18-0.52-1.18-1.17 0-0.65 0.53-1.18 1.18-1.18 0.65 0 1.17 0.53 1.17 1.18z"/>
				<path class="s1" d="m201.77 87.75c0 0.77-0.63 1.4-1.41 1.4-0.77 0-1.4-0.63-1.4-1.4 0-0.78 0.63-1.41 1.4-1.41 0.78 0 1.41 0.63 1.41 1.41z"/>
				<path class="s1" d="m293.83 79.81c0 2.41-1.95 4.36-4.36 4.36-2.41 0-4.36-1.95-4.36-4.36 0-2.41 1.95-4.36 4.36-4.36 2.41 0 4.36 1.95 4.36 4.36z"/>
				<path class="s1" d="m348.31 260.35c0 2.3-1.87 4.16-4.16 4.16-2.3 0-4.16-1.86-4.16-4.16 0-2.29 1.86-4.16 4.16-4.16 2.29 0 4.16 1.87 4.16 4.16z"/>
			</g>
		</g>
		<g>
			<g>
				<path fill-rule="evenodd" class="s2" d="m209.35 450.25l-91.06-1.35 19.66-51.96 85.83 0.23z"/>
				<g>
					<path class="s3" d="m210.76 402.72c-1.61 1.3-3.35 2.8-3.61 4.85-0.23 1.8 0.75 3.63 0.37 5.4-0.31 1.45-1.46 2.55-2.46 3.64-2.08 2.27-3.79 5.12-3.77 8.19 0.01 2.59 1.23 5.26 0.3 7.67-0.95 2.47-3.88 3.82-4.66 6.35-0.57 1.86 0.15 4.02-0.76 5.74"/>
					<path class="s3" d="m193.35 408.09c-2.15 1.93-3.22 4.99-2.74 7.84 0.29 1.76 1.12 3.45 0.98 5.22-0.3 3.89-5.06 6.41-5.11 10.31-0.01 1.15 0.41 2.28 0.42 3.43 0.02 1.59-0.74 3.07-1.48 4.48"/>
					<path class="s3" d="m173.35 401.32c0.36 2.18-0.83 4.28-1.9 6.21q-1.21 2.19-2.27 4.47c-0.41 0.86-0.8 1.78-0.74 2.73 0.06 0.89 0.52 1.71 0.73 2.59 0.53 2.3-0.76 4.59-2 6.6q-1.4 2.26-2.79 4.53c-0.76 1.23-1.53 2.8-0.78 4.04"/>
					<path class="s3" d="m181.4 409.53q-0.93 1.38-1.61 2.9c-0.39 0.84-0.71 1.77-0.55 2.69 0.11 0.58 0.41 1.1 0.6 1.66 0.37 1.04 0.38 2.2 0.02 3.24-0.52 1.51-1.75 2.74-2.02 4.31"/>
				</g>
			</g>
			<g>
				<path class="s4" d="m100.86 418.04c-0.55-4.13 0.21-8.1 1.9-8.32l44.68-5.41c1.69-0.22 3.5 2.95 4.04 7.08 0.55 4.14-0.36 8.3-2.05 8.53l-44.53 5.2c-1.69 0.23-3.5-2.95-4.04-7.08z"/>
				<path fill-rule="evenodd" class="s5" d="m115.85 407.99l2.06 15.75-5.1 0.67-2.07-15.75z"/>
				<g>
					<path class="s1" d="m148.21 404.28l16.5 5.45-14.61 9.9c-0.39 0.27-0.89-0.52-1.02-1.61l-1.44-12.01c-0.13-1.05 0.14-1.87 0.57-1.73z"/>
					<path fill-rule="evenodd" class="s0" d="m156.01 407.11l1.03 7.82 7.67-5.2z"/>
					<path class="s2" d="m148.21 404.28l16.5 5.45-14.61 9.9c-0.39 0.27-0.89-0.52-1.02-1.61l-1.44-12.01c-0.13-1.05 0.14-1.87 0.57-1.73z"/>
				</g>
				<path class="s6" d="m108.91 408.92l-7.63 1c-2.15 0.28-3.42 4.02-2.85 8.36 0.57 4.34 2.76 7.63 4.91 7.35l7.64-0.91z"/>
				<path fill-rule="evenodd" class="s7" d="m110.75 408.7l2.07 15.75-4.96 0.65-2.07-15.75z"/>
			</g>
			<g>
				<path fill-rule="evenodd" class="s6" d="m333.92 402.49h-151.36l13.36-38.56 150.73 0.41z"/>
				<g>
					<path fill-rule="evenodd" class="s2" d="m200.03 372.17h116.97"/>
					<path fill-rule="evenodd" class="s2" d="m200.03 380.64h127.93"/>
					<path fill-rule="evenodd" class="s2" d="m195.35 391.29h136.5"/>
					<path fill-rule="evenodd" class="s2" d="m210.76 366.97l-7.53 31.92"/>
					<path fill-rule="evenodd" class="s2" d="m226.6 366.35l-5.28 32.54"/>
					<path fill-rule="evenodd" class="s2" d="m242.09 366.97l-2.77 31.21"/>
					<path fill-rule="evenodd" class="s2" d="m259.41 367.29l-0.56 30.89"/>
					<path fill-rule="evenodd" class="s2" d="m277.61 368.57v30.32"/>
					<path fill-rule="evenodd" class="s2" d="m293.73 368.57l1.31 29.61"/>
					<path fill-rule="evenodd" class="s2" d="m310.84 367.29l0.97 30.89"/>
				</g>
			</g>
			<path fill-rule="evenodd" class="s2" d="m25.02 337.42h449.96"/>
		</g>
		<g>
			<g>
				<g>
					<path class="s1" d="m307.91 281.07c-24.3-24.64-70.18-41.82-139.58-32.82-69.39 9-88.51 38.72-88.51 38.72-21.39 29.46-23.88 65.38 3.16 77.18 18.97 8.29 96.27-2.4 112.56-1.75 16.29 0.65 38.93 8.64 44.96 17.92 6.02 9.29 15.96 9.29 17.26 3.11q0.12-0.56 0.03-1.23l0.17 0.51c6.26 1.44 9.57-2.6 8.76-6.79q-0.1-0.5-0.41-1.14l0.21 0.07c2.15 0.09 8.11-0.25 8.51-6.91q0.04-0.75-0.12-1.55l0.51 0.18c1.21-0.33 2.25-1.1 3.03-2.42 1.66-2.79 1.32-7.15-1.3-12.25 11.71-0.53 22.65-2.59 30.76-7.27 16.84-9.73 24.3-38.92 0-63.56z"/>
					<g>
						<path class="s2" d="m114.25 311.58c0 0 52.64-11.34 102.89 2.59 50.26 13.92 66.85 40.66 61.31 49.98-0.78 1.32-1.82 2.08-3.03 2.42"/>
						<path class="s2" d="m256.46 347.25c0 0 19.06 12.55 18.57 20.69-0.4 6.66-6.36 7-8.51 6.91"/>
						<path class="s2" d="m248.8 354.58c0 0 16.96 16.36 17.92 21.34 0.81 4.19-2.5 8.23-8.76 6.79"/>
						<path class="s2" d="m241.15 361.06c0 0 17.92 16.2 16.61 22.37-1.3 6.18-11.24 6.18-17.26-3.11-6.03-9.28-28.67-17.27-44.96-17.92-16.29-0.65-93.59 10.04-112.56 1.75-27.05-11.8-24.55-47.72-3.16-77.18 0 0 19.12-29.72 88.51-38.72 69.4-9 115.28 8.18 139.58 32.82 24.3 24.64 16.84 53.83 0 63.56-8.11 4.68-19.05 6.75-30.77 7.27"/>
					</g>
					<g>
						<path fill-rule="evenodd" class="s8" d="m152.06 356.1l10.78-12.33"/>
						<path fill-rule="evenodd" class="s8" d="m171.27 348.94l5.78 7.16"/>
						<path fill-rule="evenodd" class="s8" d="m170.61 334l8.61-9.39"/>
						<path fill-rule="evenodd" class="s8" d="m194.52 323.57l-8.27-6.09"/>
						<path fill-rule="evenodd" class="s8" d="m153.67 323.57l9.17 9.33"/>
						<path fill-rule="evenodd" class="s8" d="m123.44 317.48l-9.19 13.61"/>
						<path fill-rule="evenodd" class="s8" d="m102.63 295.31l13.03 4.49"/>
						<path fill-rule="evenodd" class="s8" d="m121.75 288l4.96-9.58"/>
						<path fill-rule="evenodd" class="s8" d="m109.15 271.4l5.1 8.09"/>
						<path fill-rule="evenodd" class="s8" d="m124.23 268.51l8.55-9.29"/>
						<path fill-rule="evenodd" class="s8" d="m152.06 280.74l-12.92-9.34"/>
						<path fill-rule="evenodd" class="s8" d="m152.06 262.06l8.82-5.87"/>
						<path fill-rule="evenodd" class="s8" d="m184.16 274.44l-10-12.38"/>
						<path fill-rule="evenodd" class="s8" d="m223.83 275.52l6.73-9.11"/>
						<path fill-rule="evenodd" class="s8" d="m235.56 253.66l7.88 6.35"/>
						<path fill-rule="evenodd" class="s8" d="m245.26 271.4l10.06-1.31"/>
						<path fill-rule="evenodd" class="s8" d="m251.72 252.07l3.6 6.08"/>
						<path fill-rule="evenodd" class="s8" d="m266.84 266.41l9.33-4.35"/>
						<path fill-rule="evenodd" class="s8" d="m266.84 277.26v11.84"/>
						<path fill-rule="evenodd" class="s8" d="m275.04 275.44l13.19 2.98"/>
					</g>
					<path class="s6" d="m214.5 313.46q-7.24-1.87-14.46-3.11c-6.78 7.28-21.88 26.69-18.65 52.63 6.24-0.44 11.2-0.7 14.15-0.58q0.07 0.01 0.15 0.01c-0.03-12.52 2.26-36.4 18.81-48.95z"/>
				</g>
				<g>
					<path class="s1" d="m179.92 268.9c-48.68 3.91-60.79 43.7-49.05 45.72q1.03 0.17 1.91 0.12l0.06-0.02c-0.25 2.31 0.41 4.31 2.53 5.63q1.56 0.97 3.07 1.04l0.14-0.43q0 0.74 0.17 1.45c1.1 4.61 4.67 4.99 8.1 4.1l0.12-0.31c0.68 4.36 5.87 6.05 10.18 4.06 5.65-2.61 12.3-9.25 26.73-14.04 14.53-4.81 31.66-4.23 61.38 8.53l42.97-32.56c0 0-59.63-27.2-108.31-23.29z"/>
					<g>
						<path class="s2" d="m288.23 292.19c0 0-59.63-27.2-108.31-23.29-48.68 3.91-60.79 43.7-49.05 45.72q1.03 0.17 1.91 0.12"/>
						<path class="s2" d="m147.53 293.06c0 0-22.15 21.02-12.16 27.3q1.56 0.96 3.07 1.03"/>
						<path class="s2" d="m158.26 297.44c-5.85 4.27-21.5 16.61-19.51 24.97 1.1 4.61 4.67 4.99 8.1 4.1"/>
						<path class="s2" d="m166.49 303.86c0 0-15.21 9.76-18.68 17.54-3.48 7.77 3.69 11.46 9.34 8.86 5.64-2.61 12.29-9.25 26.73-14.04 14.52-4.81 31.65-4.23 61.38 8.53"/>
					</g>
					<path class="s2" d="m185.45 268.59c8.55 4.5 24.49 16.85 20 44.99 4.09 0.28 8.51 0.95 13.37 2.09 1.18-11.81 0.73-34.05-16.46-46.62-5.67-0.46-11.34-0.64-16.91-0.46z"/>
					<g>
						<path fill-rule="evenodd" class="s8" d="m216.83 275.52l8.53 6.3"/>
						<path fill-rule="evenodd" class="s8" d="m222.91 305.5l6.79-5.7"/>
						<path fill-rule="evenodd" class="s8" d="m238.56 293.19l9.77 4.24"/>
						<path fill-rule="evenodd" class="s8" d="m240.12 310.71l1.71 8.16"/>
						<path fill-rule="evenodd" class="s8" d="m253.34 307.22l9.8 7.57"/>
						<path fill-rule="evenodd" class="s8" d="m265.75 295.31l8.15-3.68"/>
						<path fill-rule="evenodd" class="s8" d="m245.88 287.6l5.84-5.78"/>
						<path fill-rule="evenodd" class="s8" d="m256.46 321.25l3.86 8.57"/>
					</g>
				</g>
			</g>
			<g>
				<path class="s1" d="m188.45 250.85c0 0 2.14 13.7-4.51 14.5-6.65 0.8-22.89-3.54-20.49-19.07 2.39-15.52 36.18-36.97 57.28-28.66 21.09 8.31 23.62 26.69 22.49 38.42-1 10.38-7.12 17.56-22.02 12.24-14.91-5.32-32.75-17.43-32.75-17.43z"/>
				<path fill-rule="evenodd" class="s9" d="m224.64 273.87c-14.39 7.56-32.13 2.05-39.7-12.34-7.57-14.39-2.05-32.14 12.34-39.7 14.39-7.57 32.14-2.05 39.7 12.34 7.57 14.38 2.05 32.13-12.34 39.7z"/>
				<g>
					<path class="s1" d="m186.02 264.51c-11.34-1.17-11.96-14.74-9.8-23.11 4.06-15.72 26.18-27 41.9-22.95 12.34 3.19 24.31 14.76 22.77 27.21-4.92-3.01-11.39-8.18-13.9-14.43 0 0-12.32 16.43-35.79 10.49l-1.1 5.15c0 0 0.33 9.79-0.84 12.76-1.73 4.41-3.24 4.88-3.24 4.88z"/>
				</g>
				<g>
					<path class="s1" d="m184.61 242.49c-1 3.9 1.34 7.87 5.24 8.88 3.9 1.01 7.87-1.34 8.88-5.24 1-3.89-1.34-7.87-5.24-8.88-3.9-1-7.87 1.34-8.88 5.24z"/>
					<path class="s2" d="m196.68 245.61c0.72-2.77-0.95-5.6-3.72-6.31-2.76-0.71-5.59 0.95-6.3 3.72-0.72 2.77 0.95 5.59 3.72 6.31"/>
					<path class="s2" d="m198.96 244.23c-0.03-3.21-2.21-6.13-5.47-6.97-3.9-1.01-7.87 1.34-8.88 5.23-1 3.9 1.34 7.88 5.24 8.88"/>
				</g>
				<path fill-rule="evenodd" class="s10" d="m199.79 215.28c-7.35 0-13.3-5.94-13.3-13.3 0-7.35 5.95-13.3 13.3-13.3 7.36 0 13.3 5.95 13.3 13.3 0 7.36-5.94 13.3-13.3 13.3z"/>
				<g>
					<path class="s2" d="m188.45 250.85c0 0 2.14 13.7-4.51 14.5-6.65 0.8-22.89-3.54-20.49-19.07 2.39-15.52 36.18-36.97 57.28-28.66 21.09 8.31 23.62 26.69 22.49 38.42-0.77 7.96-4.55 14.05-13.01 14.04"/>
					<g>
						<path class="s2" d="m240.89 245.66c-4.92-3.01-11.39-8.19-13.89-14.43 0 0-9.62 12.82-28.04 11.71"/>
					</g>
					<path class="s2" d="m199.79 237.54c0 0 15.86-1.8 22.54-7.29"/>
					<path class="s2" d="m203.33 232.43c0 0 9.56-2.71 13.56-4.21"/>
				</g>
			</g>
			<g>
				<path class="s2" d="m215.47 246.6c-0.12 1.94 0.97 3.58 2.43 3.68 1.46 0.09 2.74-1.41 2.87-3.34"/>
				<path class="s2" d="m232.56 247.61c-0.25 1.57 0.51 3 1.69 3.18 1.19 0.19 2.35-0.93 2.6-2.5"/>
				<path fill-rule="evenodd" class="s2" d="m227.57 242.34l3.24 8.98-5.83-0.11"/>
				<path class="s2" d="m230.34 258.93c0 0-4.96-1.53-8.53-1.78"/>
			</g>
		</g>
		<g>
			<g>
				<g>
					<path fill-rule="evenodd" class="s5" d="m339.88 190.66c-21.19 21.2-55.46 21.2-76.65 0-21.2-21.19-21.2-55.46 0-76.65 21.19-21.2 55.46-21.2 76.65 0 21.2 21.19 21.2 55.46 0 76.65z"/>
					<path fill-rule="evenodd" class="s1" d="m316.42 197.52c-24.99 8.22-51.83-5.33-60.05-30.32-8.22-24.98 5.33-51.83 30.32-60.05 24.98-8.22 51.83 5.34 60.05 30.32 8.22 24.99-5.34 51.83-30.32 60.05z"/>
				</g>
				<g>
					<path fill-rule="evenodd" class="s2" d="m315.03 113.96l-1.79 5.02"/>
					<path fill-rule="evenodd" class="s2" d="m289.49 185.55l-1.79 5.02"/>
					<path fill-rule="evenodd" class="s2" d="m262.89 138.92l5.51 1.96"/>
					<path fill-rule="evenodd" class="s2" d="m334.48 164.46l5.51 1.96"/>
					<path fill-rule="evenodd" class="s2" d="m293.67 112l1.17 6.44"/>
					<path fill-rule="evenodd" class="s2" d="m275.25 121.68l3.71 4.43"/>
					<path fill-rule="evenodd" class="s2" d="m261.61 159.9l5.8-1.4"/>
					<path fill-rule="evenodd" class="s2" d="m269.93 178.57l4.81-3.76"/>
					<path fill-rule="evenodd" class="s2" d="m308.8 192.43l-1.35-5.95"/>
					<path fill-rule="evenodd" class="s2" d="m327.69 183.47l-3.92-4.87"/>
					<path fill-rule="evenodd" class="s2" d="m341.33 145.25l-6.65 0.73"/>
					<path fill-rule="evenodd" class="s2" d="m332.14 127l-4.58 3.11"/>
				</g>
				<g>
					<g>
						<path class="s0" d="m307.63 154.5c-1.19 3.35-4.88 5.1-8.24 3.91-3.35-1.2-5.1-4.89-3.9-8.24 1.19-3.36 4.88-5.11 8.24-3.91 3.35 1.2 5.1 4.89 3.9 8.24z"/>
					</g>
					<path fill-rule="evenodd" class="s11" d="m329.85 138.92l-27.85 14.15 0.88-22.96"/>
				</g>
			</g>
			<g>
				<g>
					<path class="s12" d="m389.17 168.54c-0.96-3.36 0.25-5.27-4.95-13.1-5.21-7.83 4.24-11.73 8.71-3.29 4.47 8.43-2.39 21.19-3.76 16.39z"/>
					<path class="s12" d="m398.87 141.11c-1.32-2.49-2.82-10.65 2.05-11.09 6.51-0.6 1.53 17.78-2.05 11.09z"/>
					<g>
						<path class="s12" d="m394.73 288.88c0 0-40.4-17.74-43.98-48.78-2.84-24.6 18.25-42.02 27.13-48.18 1.2-0.84 2.77 0.34 2.3 1.73-2.43 7.1-6.66 21.36-4.02 27.95 0 0 0.32-18.25 13.03-31.03 9.39-9.46 13.78-21.58 15.3-29.46 0.51-2.61 3.76-3.55 5.58-1.61 9.33 9.89 28.57 34.18 28.18 65.96 0 0 3.76-8.05 3.95-16.08 0.06-2.36 2.94-3.49 4.63-1.84 5.87 5.72 14.36 16.3 14.23 29.54-0.2 20.2-10.62 49.52-66.33 51.8z"/>
						<path class="s13" d="m388.1 280.85c0 0-21.46-21.62-4.1-49.42 0 0-0.89 8.87 6.71 16.6 7.6 7.73 12.81 15.33 12.81 15.98 0 0-15.15-21.47-5.64-36.39 8.07-12.68 11.29-18.22 11.29-23.39 0 0 5.7 7.45 4.62 19.65-1.09 12.21 10.77 14.23 16.61 21.99 5.84 7.77 5.6 24.22-0.97 32.47"/>
					</g>
				</g>
				<g>
					<path fill-rule="evenodd" class="s7" d="m330.55 374.64l-17.13 39.81h55.14l4.21-39.81z"/>
					<g>
						<path class="s7" d="m426.32 383.21h-155.25c-8.8 0-14.01-7.13-11.66-15.92l24.79-92.52c2.36-8.8 11.4-15.92 20.19-15.92h155.25c8.8 0 14.01 7.12 11.66 15.92l-24.79 92.52c-2.36 8.79-11.4 15.92-20.19 15.92z"/>
					</g>
					<path class="s2" d="m382.8 295.09c-1.54 5.74-7.48 10.4-13.28 10.4-5.8 0-9.25-4.66-7.71-10.4 1.54-5.74 7.48-10.39 13.28-10.39 5.8 0 9.25 4.65 7.71 10.39z"/>
					<path fill-rule="evenodd" class="s2" d="m291.01 279.72l-23.21 87.25"/>
				</g>
			</g>
			<g>
				<g>
					<path class="s14" d="m40.94 296.53c0 10.12 8.2 18.33 18.32 18.33 10.13 0 18.33-8.21 18.33-18.33 0-10.12-8.2-18.33-18.33-18.33-10.12 0-18.32 8.21-18.32 18.33zm6.74 0c0-6.4 5.19-11.58 11.58-11.58 6.4 0 11.59 5.18 11.59 11.58 0 6.4-5.19 11.58-11.59 11.58-6.39 0-11.58-5.18-11.58-11.58z"/>
					<path class="s14" d="m68.55 325.94h30.4c5.55 0 10.05-4.5 10.05-10.05v-38.07c0-5.56-4.5-10.06-10.05-10.06h-30.4c-5.56 0-10.06 4.5-10.06 10.06v38.07c0 5.55 4.5 10.05 10.06 10.05z"/>
				</g>
				<g>
					<g>
						<path class="s15" d="m87.33 285.49c0 0 6.03 9.57 13.52 5.44 5.87-3.23-5.05-12.78-13.52-5.44z"/>
						<path class="s11" d="m87.33 285.49c0 0 6.41 0.17 11.53 2.69"/>
					</g>
					<path class="s12" d="m83.56 315.93c-4.56 0.48-12.29-1.23-15.68-10.71-4.3-12.04 9.66-24 16.42-13.26 0 0 10.11-3.25 12.56 4.09 2.44 7.34-1.06 18.58-13.3 19.88z"/>
					<path class="s11" d="m83.56 294.22c0 0 2.38-9.1 8.65-14.95"/>
				</g>
				<path class="s3" d="m59.25 218.81c0 0 9.25-14.97-1.69-20.92-10.94-5.96-28.3-11.52-19.39-31.16 8.9-19.64 39.04-24.62 53.27-3.27 14.22 21.34 2.34 35.92-2.09 45.33-4.44 9.41-2.48 11.85 3.64 19.02 6.13 7.17 12.51 26.82-3.64 26.86-10.98 0.02-5.43-14.08-16.53-16.89-11.1-2.81-18.8-8.65-13.57-18.97z"/>
			</g>
			<g>
				<g>
					<path class="s16" d="m166.3 378.46h-107.03c-4.16 0-7.54-3.37-7.54-7.54v-11.25c0-4.17 3.38-7.54 7.54-7.54h107.03c4.16 0 7.54 3.37 7.54 7.54v11.25c0 4.17-3.38 7.54-7.54 7.54z"/>
					<path class="s1" d="m124.53 371.16h-57.45c-2.43 0-4.41-1.98-4.41-4.42v-2.9c0-2.43 1.98-4.41 4.41-4.41h57.45c2.44 0 4.42 1.98 4.42 4.41v2.9c0 2.44-1.98 4.42-4.42 4.42z"/>
					<path class="s1" d="m165.93 365.29c0 2.77-2.45 5.01-5.48 5.01-3.02 0-5.47-2.24-5.47-5.01 0-2.76 2.45-5.01 5.47-5.01 3.03 0.01 5.48 2.25 5.48 5.01z"/>
				</g>
				<g>
					<path class="s17" d="m150.03 351.71h-107.03c-4.16 0-7.54-3.37-7.54-7.54v-11.25c0-4.17 3.38-7.55 7.54-7.55h107.03c4.16 0 7.54 3.38 7.54 7.55v11.25c0 4.16-3.38 7.54-7.54 7.54z"/>
					<path class="s1" d="m108.26 344.41h-57.45c-2.43 0-4.41-1.98-4.41-4.42v-2.9c0-2.44 1.98-4.41 4.41-4.41h57.45c2.44 0 4.42 1.97 4.42 4.41v2.9c0 2.44-1.98 4.42-4.42 4.42z"/>
					<path class="s1" d="m149.66 338.54c0 2.77-2.25 5.01-5.01 5.01-2.77 0-5.01-2.24-5.01-5.01 0-2.76 2.24-5.01 5.01-5.01 2.76 0 5.01 2.25 5.01 5.01z"/>
				</g>
			</g>
		</g>
		<g>
			<g>
				<path fill-rule="evenodd" class="s6" d="m428.16 270.55l-5.26 27.88 4.53 1.65-1.51 2.86h28.52l6.62-32.39z"/>
				<g>
					<path fill-rule="evenodd" class="s18" d="m431.21 276.14h23.91"/>
					<path fill-rule="evenodd" class="s18" d="m429.43 280.85h23.91"/>
					<path fill-rule="evenodd" class="s18" d="m428.41 285.56h23.91"/>
					<path fill-rule="evenodd" class="s18" d="m427.44 290.26h23.91"/>
					<path fill-rule="evenodd" class="s18" d="m426.29 295.65h23.91"/>
				</g>
				<path fill-rule="evenodd" class="s6" d="m422.9 298.43l3.02 4.51"/>
			</g>
			<g>
				<path fill-rule="evenodd" class="s6" d="m301.21 303.64l-5.26 27.89 4.54 1.64-1.52 2.87h28.52l6.62-32.4z"/>
				<g>
					<path fill-rule="evenodd" class="s18" d="m304.26 309.24h23.91"/>
					<path fill-rule="evenodd" class="s18" d="m302.48 313.95h23.91"/>
					<path fill-rule="evenodd" class="s18" d="m301.46 318.65h23.91"/>
					<path fill-rule="evenodd" class="s18" d="m309.61 323.36h14.79"/>
				</g>
				<path fill-rule="evenodd" class="s6" d="m295.95 331.53l3.02 4.51"/>
			</g>
			<g>
				<path fill-rule="evenodd" class="s6" d="m384.21 325.87l-6.18 32.39h32.46l6.62-32.39z"/>
				<g>
					<path fill-rule="evenodd" class="s18" d="m387.26 331.46h23.91"/>
					<path fill-rule="evenodd" class="s18" d="m385.48 336.17h23.91"/>
					<path fill-rule="evenodd" class="s18" d="m384.46 340.88h23.91"/>
					<path fill-rule="evenodd" class="s18" d="m392.61 345.58h14.79"/>
				</g>
			</g>
		</g>
		<g>
			<path class="s3" d="m35.46 79.81c0 0 25.29-8.67 45.18 6.53 19.9 15.21 12.28 46.73 1.1 39.77-11.18-6.97 10.8-21.9 24.9-16.71 8.81 3.24 15.73 13.27 16.96 20.12"/>
			<path class="s3" d="m413.75 100.9c0 0 8.88-27.74 24.63-26.28 15.32 1.41 6.95 15.52-0.52 9.55-8.29-6.62-13.3-18.6-1.76-34.42"/>
			<path class="s3" d="m444.03 169.84c0 0 30.47 11.98 23.72 18.89-6.76 6.92-15.17-9.03 0.4-16.32"/>
			<path fill-rule="evenodd" class="s2" d="m413.51 402.49l3.6 23.89"/>
			<path fill-rule="evenodd" class="s2" d="m424.41 394.55l28.93 16.47"/>
			<path fill-rule="evenodd" class="s2" d="m141.28 96.03l-6.23-19.37"/>
			<path fill-rule="evenodd" class="s2" d="m434.58 136.29l18.76-8.47"/>
		</g>
	</g>
</svg>