<svg version="1.2" xmlns="http://www.w3.org/2000/svg" viewBox="0 0 500 500" width="500" height="500">
	<defs>
		<clipPath clipPathUnits="userSpaceOnUse" id="cp1">
			<path d="m156.59 243.74c5.13-5.66 11.16-10.55 17.37-14.69l-42.73-64.69c-12.38 7.16-23.85 14.41-31.49 20.18-18.43 13.92-69.63 59.19-38.32 105.88 31.31 46.69 133.13 17.6 133.13 17.6 0 0 40.02-55.91 35.36-59.3-4.64-3.38-72.81-4.97-73.32-4.98z"/>
		</clipPath>
		<clipPath clipPathUnits="userSpaceOnUse" id="cp2">
			<path d="m327.11 379.1c0 0 10.55 40.75 70.26 39.66 3.84-3.41 6.64-7.65 7.73-12.91 11.5-55.33-15.53-82.78-60.17-117.01-58.21-44.64-82.03-37.02-82.03-37.02z"/>
		</clipPath>
		<clipPath clipPathUnits="userSpaceOnUse" id="cp3">
			<path d="m312.22 283.53c0 0-1.3-2.34-4.09-5.88 1.2-3.25 2.09-5.92 2.02-6.52-0.22-1.73-8.84-11.2-16.38-11.65-1.68-0.1-3.43 0.08-5.16 0.41-8.64-5.71-19.88-10.96-34.08-13.71-15.68-3.03-29.78 0.7-41.26 6.5-2.89-2.74-5.89-5.09-8.25-5.84-6.73-2.14-21.28 2.79-23.17 10.23-1.22 4.81 1.92 11.87 4.3 16.26-2.28 2.44-3.5 4.01-3.5 4.01-38 42.48-35.4 148.74-35.4 148.74h182.56c8.81-98.95-17.59-142.55-17.59-142.55z"/>
		</clipPath>
	</defs>
	<style>
		.s0 { fill: none;stroke: #d4d4d4;stroke-linecap: round;stroke-linejoin: round } 
		.s1 { fill: #d4d4d4 } 
		.s2 { fill: none;stroke: #000000;stroke-linecap: round;stroke-linejoin: round } 
		.s3 { fill: none;stroke: #000000;stroke-linecap: round;stroke-linejoin: round;stroke-width: .8 } 
		.s4 { fill: #ffffff } 
		.s5 { fill: #ed5d1c;stroke: #000000;stroke-linecap: round;stroke-linejoin: round } 
		.s6 { fill: #ffffff;stroke: #000000;stroke-linecap: round;stroke-linejoin: round;stroke-width: 1 } 
		.s7 { fill: #000000 } 
		.s8 { fill: #ed5d1c } 
		.s9 { fill: none;stroke: #ed5d1c;stroke-linecap: round;stroke-linejoin: round } 
		.s10 { fill: #d4d4d4;stroke: #000000;stroke-linecap: round;stroke-linejoin: round } 
		.s11 { fill: #ffffff;stroke: #000000;stroke-linecap: round;stroke-linejoin: round } 
	</style>
	<g id="OBJECTS">
		<g>
			<path class="s0" d="m46.91 385.44c0 0 58.64-57.19 129.66-33.73 71.02 23.46 201.34-29.04 200.04-113.23-1.31-84.2-45.79-49.75-32.02-29.51 13.77 20.24 67.55 21.44 81.38-22.81 13.84-44.26 35.56-43.96 35.56-43.96"/>
			<path class="s0" d="m79.04 70.68c0 0 37.06 22.43 25.71 42.15-9.77 16.97-30.03-16.68 8.84-15.05 38.87 1.63 37.76 37.78 37.76 37.78"/>
			<path class="s0" d="m396.81 310.01c0 0 29.32 2.61 34.53-11.73 5.21-14.33-8.47-15.99-11.08-8.32-2.6 7.67 14.34 17.44 25.41 14.84"/>
			<path fill-rule="evenodd" class="s1" d="m70.14 183.59l-27.48 3.09 9.6-17.86z"/>
			<path fill-rule="evenodd" class="s1" d="m436.55 240.18l9.13-10.27 5.86 13.17z"/>
			<path fill-rule="evenodd" class="s1" d="m227.59 87.07l-5.43-16.33 15.14 4.39z"/>
			<path fill-rule="evenodd" class="s2" d="m56.7 358.22l-19.58-3.26"/>
			<path fill-rule="evenodd" class="s2" d="m306.87 203.59l14.12-18.86"/>
			<path fill-rule="evenodd" class="s2" d="m175.23 82.68l-6.44-28.32"/>
			<path fill-rule="evenodd" class="s2" d="m338.02 254.75l13.2-3.02"/>
			<path fill-rule="evenodd" class="s3" d="m25.37 426.08h442.34"/>
		</g>
		<g>
			<path class="s4" d="m416.22 56.76c-34.33 23.48-64.06 49.89-74.98 67.53-8.3 13.4-8.16 20.63-3.22 22.61 7.25 2.9 21.07-15.19 21.07-15.19 0 0-0.63 12.18 7.41 10.82l-0.22 0.16c0 0 2.22 6.69 10.47 6.35q0.88-0.04 1.74-0.22c0.02 0.04 3.51 7.53 10.69 5.62 3.13-0.84 5.56-2.77 7.25-5.06 0 0 29.45-12 60.61-34.67z"/>
			<g>
				<path class="s2" d="m375.73 113c0 0-12.08 23.75-3.23 27.74 8.86 3.99 15.23-16.27 15.23-16.27 0 0 6.49 0.61 11.74-7.21"/>
				<path class="s2" d="m366.28 142.69c0 0 2.23 6.69 10.47 6.35 8.25-0.33 15.22-10.24 15.15-15.02-0.05-3.8-3.2-5.44-5.69-5.49"/>
				<path class="s2" d="m378.49 148.81c0 0 3.49 7.55 10.69 5.63 7.21-1.93 10.76-9.69 9.88-14.16-0.86-4.33-4.41-5.81-7.12-5.35"/>
				<path fill-rule="evenodd" class="s2" d="m367.11 125.19l4.11-2.11"/>
				<path class="s2" d="m410.67 60.6c-31.96 22.48-59.11 47-69.43 63.69-8.3 13.4-8.16 20.63-3.22 22.61 7.25 2.9 21.08-15.18 21.08-15.18 0 0-0.89 16.96 12.65 8.6"/>
				<path class="s2" d="m396.43 149.38c0 0 30.53-12.44 62.31-35.91"/>
			</g>
			<g>
				<path class="s5" d="m424.08 51.49c-11.72 7.7-23.04 15.83-33.43 23.95 0.05 0.04 29.72 21.76 50.61 50.01 9.63-6.13 19.93-13.42 29.97-21.8-14.19-27.07-34.9-43.92-47.15-52.16z"/>
				<path class="s2" d="m407.8 66.59c0 0 21.84 13.14 43.31 45.86"/>
				<path fill-rule="evenodd" class="s2" d="m406.88 80.4c-2.11 0-3.81-1.7-3.81-3.8 0-2.1 1.7-3.8 3.81-3.8 2.1 0 3.8 1.7 3.8 3.8 0 2.1-1.7 3.8-3.8 3.8z"/>
			</g>
		</g>
		<g>
			<g>
				<path fill-rule="evenodd" class="s6" d="m253.03 209.89c-22.37 2.76-42.68-13.09-45.44-35.46-2.76-22.37 13.09-42.68 35.46-45.44 22.37-2.75 42.68 13.1 45.43 35.46 2.76 22.37-13.09 42.68-35.45 45.44z"/>
				<path class="s7" d="m288.6 173.26c2.11-22.4-14.34-42.28-36.75-44.39q-3.59-0.33-7.07-0.05c-1-0.14-2.85-0.05-5.8 0.36-20.05 2.81-33.42 21.16-28.45 23.96 4.97 2.81 15.16-11.31 15.16-11.31-0.28 1.54-6.71 9.94-1.2 11.73 4.68 1.52 10.99-11.89 10.99-11.89 0 0-4.41 10.73-0.12 12.85 4.3 2.12 7.68-9.63 7.68-9.63 0 0-3.16 12.85 8.11 18.68 11.28 5.83 15.02 5.17 15.02 5.17q0-0.01 0-0.01c3.19 0.92 6.68 1.62 10.51 2l-4.26 31.36c8.89-6.65 15.06-16.89 16.18-28.83z"/>
				<g>
					<path class="s4" d="m284.9 174.85c-0.52 5.55-5.45 9.63-11 9.11-5.56-0.52-9.64-5.45-9.12-11.01 0.53-5.55 5.46-9.63 11.01-9.11 5.56 0.52 9.64 5.45 9.11 11.01z"/>
					<path class="s2" d="m267.7 173.23c0.37-3.95 3.87-6.84 7.82-6.47 3.94 0.37 6.84 3.87 6.47 7.81-0.37 3.95-3.87 6.85-7.82 6.48"/>
				</g>
				<path fill-rule="evenodd" class="s7" d="m299.62 135.1c-14.07 4.26-28.9-3.67-33.16-17.75-4.26-14.08 3.67-28.9 17.75-33.16 14.08-4.27 28.9 3.67 33.17 17.75 4.26 14.08-3.68 28.9-17.76 33.16z"/>
			</g>
			<g>
				<path class="s7" d="m245.94 166.9c-0.22 2.34-1.83 4.11-3.6 3.94-1.76-0.16-3.02-2.2-2.8-4.54 0.22-2.34 1.83-4.11 3.6-3.94 1.77 0.17 3.02 2.2 2.8 4.54z"/>
				<path class="s7" d="m223.26 159.95c-0.2 2.19-1.71 3.84-3.37 3.69-1.65-0.16-2.83-2.06-2.62-4.26 0.2-2.19 1.71-3.84 3.37-3.69 1.65 0.16 2.83 2.06 2.62 4.26z"/>
				<path fill-rule="evenodd" class="s2" d="m232.39 155.73l-8.44 10.18 7.66 2.61"/>
				<path class="s2" d="m220.99 176.06c0 0 7.17 0.34 11.95 1.69"/>
				<path class="s8" d="m256.19 181c-1.92 3.6-6.39 4.97-9.99 3.06-3.6-1.92-4.97-6.39-3.05-9.99 1.91-3.6 6.38-4.97 9.98-3.05 3.6 1.91 4.97 6.38 3.06 9.98z"/>
				<path class="s8" d="m217.65 171.13c1.63-3.08 0.46-6.89-2.61-8.53-2.27-1.2-4.94-0.87-6.84 0.61-0.15 0.94-0.31 1.87-0.4 2.83-0.22 2.24-0.2 4.47-0.04 6.68 0.41 0.38 0.85 0.74 1.36 1.01 3.08 1.64 6.89 0.47 8.53-2.6z"/>
			</g>
			<g>
				<g>
					<path class="s4" d="m245.34 181.89c-0.95-9.5-33.23-3.89-33.23-3.89 30.84-9.22 28.48-19.4 22.9-24.22-2.08-1.8-3.64-2.35-8.71-1.06l0.4-0.61c0.85-2.56 0.17-6.7-4.05-8.89-3.95-2.05-15.22 0.61-25.79 4.12 0.39-0.73 5.4-9.91-2.28-12.06-7.95-2.23-70.64 30.98-94.84 49.26-18.44 13.92-69.63 59.19-38.32 105.88 31.31 46.69 133.13 17.6 133.13 17.6 0 0 40.02-55.91 35.36-59.3-4.64-3.38-72.81-4.97-73.32-4.98 18.05-19.93 47.37-30.35 56.12-31.94 10.44-1.91 26.15-2.73 25.89-10.62-0.19-5.66-7.86-6.81-12.2-7.01 19.01-0.1 19.65-5.23 18.94-12.28zm-21.84 12.27q0.01 0 0.03 0-0.02 0-0.03 0z"/>
					<g>
						<g id="Clip-Path" clip-path="url(#cp1)">
							<g>
								<path class="s9" d="m161.49 285.04c-1.78-3.33-4.81-5.72-8.43-6.61-7.03-1.73-14.12 2.77-15.79 10.02-1.68 7.25 2.68 14.56 9.71 16.28 3.99 0.98 8.16-0.01 11.32-2.66 1.78 3.34 4.81 5.73 8.43 6.62 7.03 1.72 14.12-2.77 15.79-10.02 1.68-7.26-2.68-14.56-9.72-16.29-3.98-0.98-8.15 0.02-11.31 2.66z"/>
								<path class="s9" d="m98.92 302.18c-1.79-3.33-4.82-5.72-8.44-6.61-7.03-1.73-14.11 2.76-15.79 10.02-1.68 7.25 2.68 14.56 9.72 16.28 3.98 0.98 8.15-0.01 11.31-2.66 1.78 3.34 4.81 5.73 8.43 6.61 7.03 1.73 14.12-2.76 15.79-10.02 1.68-7.25-2.68-14.55-9.71-16.28-3.99-0.98-8.16 0.02-11.31 2.66z"/>
								<path class="s9" d="m105.61 240.67c-1.78-3.34-4.82-5.73-8.43-6.61-7.03-1.73-14.12 2.76-15.8 10.02-1.67 7.25 2.69 14.55 9.72 16.28 3.99 0.98 8.15-0.01 11.31-2.66 1.79 3.33 4.82 5.72 8.43 6.61 7.04 1.73 14.12-2.76 15.8-10.02 1.67-7.25-2.69-14.55-9.72-16.28-3.98-0.98-8.15 0.01-11.31 2.66z"/>
								<path class="s9" d="m150.11 203.04c-1.79-3.33-4.82-5.72-8.43-6.61-7.04-1.73-14.12 2.77-15.8 10.02-1.68 7.25 2.68 14.56 9.72 16.28 3.98 0.98 8.15-0.01 11.31-2.66 1.78 3.34 4.82 5.73 8.43 6.62 7.03 1.72 14.12-2.77 15.79-10.02 1.68-7.26-2.68-14.56-9.71-16.29-3.99-0.98-8.16 0.02-11.31 2.66z"/>
								<path class="s9" d="m86.56 187.55c-1.78-3.34-4.81-5.73-8.43-6.62-7.03-1.73-14.12 2.77-15.79 10.02-1.68 7.25 2.68 14.56 9.71 16.29 3.99 0.98 8.16-0.02 11.32-2.67 1.78 3.34 4.81 5.73 8.43 6.62 7.03 1.73 14.11-2.77 15.79-10.02 1.68-7.25-2.68-14.56-9.72-16.29-3.98-0.98-8.15 0.02-11.31 2.67z"/>
								<path class="s9" d="m40.59 260.3c-1.78-3.34-4.81-5.73-8.43-6.61-7.03-1.73-14.12 2.76-15.79 10.01-1.68 7.26 2.68 14.56 9.71 16.29 3.99 0.98 8.16-0.02 11.32-2.66 1.78 3.33 4.81 5.72 8.43 6.61 7.03 1.73 14.11-2.76 15.79-10.02 1.68-7.25-2.68-14.56-9.72-16.28-3.98-0.98-8.15 0.01-11.31 2.66z"/>
								<path class="s9" d="m152.77 248.32q1.72-0.75 3.21-1.99c1.79 3.34 4.82 5.73 8.43 6.62 6.52 1.6 13.09-2.15 15.35-8.49"/>
							</g>
						</g>
					</g>
					<g>
						<path class="s2" d="m180.45 154.47c0 0 35.1-17.56 43.04-10.67 3.59 3.12 4.06 5.75 3.21 8.31"/>
						<path class="s2" d="m196.86 164.53c0 0 29.08-15.93 37.44-11.2 7.41 4.2 7.34 16.59-22.19 24.67 0 0 33.23-7.07 33.63 4.79 0.29 8.42-2.05 12.43-31.81 11.08"/>
						<path class="s2" d="m223.5 194.16c0 0 14.84-0.88 15.1 7.02 0.26 7.89-15.45 8.71-25.89 10.62-10.12 1.84-47.72 15.46-63.62 41.94"/>
						<path class="s2" d="m156.58 243.74c0 0 68.67 1.59 73.33 4.98 4.66 3.39-35.36 59.3-35.36 59.3 0 0-101.82 29.09-133.13-17.6-31.31-46.69 19.88-91.96 38.32-105.88 24.2-18.28 86.89-51.49 94.84-49.26 7.95 2.22 1.51 12.35 1.51 12.35"/>
					</g>
					<g>
						<path class="s10" d="m165.78 235.07c4.69-3.83 9.7-7.18 14.67-10.06-26.42-23.1-35.21-68.51-35.21-68.51-4.8 2.6-9.62 5.31-14.31 8.02 1.97 35.68 24.99 61.19 34.85 70.55z"/>
						<path fill-rule="evenodd" class="s2" d="m134.31 169.92l12.5-6.79"/>
						<path fill-rule="evenodd" class="s2" d="m139.43 188.46l12.92-7.9"/>
						<path fill-rule="evenodd" class="s2" d="m149.96 208.04l11.74-7.11"/>
						<path fill-rule="evenodd" class="s2" d="m159.89 223.94l12.12-7.7"/>
					</g>
				</g>
				<g>
					<path class="s4" d="m327.11 379.1c0 0-9.52 52.54 70.26 39.66 3.84-3.41 6.64-7.65 7.73-12.91 11.5-55.33-15.53-82.78-60.17-117.01-58.21-44.64-82.03-37.02-82.03-37.02z"/>
					<g>
						<g id="Clip-Path" clip-path="url(#cp2)">
							<g>
								<path class="s9" d="m353.88 285.04c-1.78-3.33-4.81-5.72-8.43-6.61-7.03-1.73-14.11 2.77-15.79 10.02-1.68 7.25 2.68 14.56 9.72 16.28 3.98 0.98 8.15-0.01 11.31-2.66 1.78 3.34 4.81 5.73 8.43 6.62 7.03 1.72 14.12-2.77 15.79-10.02 1.68-7.26-2.68-14.56-9.71-16.29-3.99-0.98-8.16 0.02-11.32 2.66z"/>
								<path class="s9" d="m340.23 335.58c-1.78-3.34-4.81-5.73-8.43-6.62-7.03-1.73-14.12 2.77-15.79 10.02-1.68 7.25 2.68 14.56 9.71 16.29 3.99 0.98 8.16-0.02 11.32-2.67 1.78 3.34 4.81 5.73 8.43 6.62 7.03 1.73 14.12-2.77 15.79-10.02 1.68-7.25-2.68-14.56-9.72-16.29-3.98-0.98-8.15 0.02-11.31 2.67z"/>
								<path class="s9" d="m409.35 329.43c-1.79-3.34-4.82-5.73-8.43-6.61-7.04-1.73-14.12 2.76-15.8 10.02-1.68 7.25 2.68 14.55 9.72 16.28 3.98 0.98 8.15-0.01 11.31-2.66 1.78 3.33 4.81 5.72 8.43 6.61 7.03 1.73 14.12-2.76 15.79-10.02 1.68-7.25-2.68-14.56-9.71-16.28-3.99-0.98-8.16 0.01-11.31 2.66z"/>
							</g>
						</g>
					</g>
					<g>
						<path class="s2" d="m262.9 251.82c0 0 23.82-7.62 82.03 37.02 44.64 34.23 71.67 61.68 60.17 117.01"/>
					</g>
				</g>
				<g>
					<path class="s4" d="m312.22 283.53c0 0 26.4 43.6 17.59 142.55h-182.56c0 0-2.6-106.26 35.41-148.74 0 0 30.43-39.17 71.87-31.16 41.45 8.01 57.69 37.35 57.69 37.35z"/>
					<g>
						<g id="Clip-Path" clip-path="url(#cp3)">
							<g>
								<path class="s9" d="m171.17 343.2c-1.78-3.34-4.81-5.73-8.43-6.62-7.03-1.73-14.12 2.77-15.79 10.02-1.68 7.25 2.68 14.56 9.71 16.29 3.99 0.98 8.16-0.02 11.31-2.67 1.79 3.34 4.82 5.73 8.43 6.62 7.04 1.73 14.12-2.77 15.8-10.02 1.68-7.25-2.68-14.56-9.72-16.29-3.98-0.98-8.15 0.02-11.31 2.67z"/>
								<path class="s9" d="m216.91 304.58c-1.78-3.34-4.81-5.73-8.43-6.61-7.03-1.73-14.12 2.76-15.79 10.02-1.68 7.25 2.68 14.55 9.72 16.28 3.98 0.98 8.15-0.01 11.31-2.66 1.78 3.34 4.81 5.72 8.43 6.61 7.03 1.73 14.12-2.76 15.79-10.02 1.68-7.25-2.68-14.55-9.71-16.28-3.99-0.98-8.16 0.01-11.32 2.66z"/>
								<path class="s9" d="m284.37 263.95c-1.79-3.34-4.81-5.73-8.43-6.62-7.03-1.73-14.12 2.77-15.8 10.02-1.67 7.25 2.69 14.56 9.72 16.29 3.99 0.98 8.15-0.02 11.31-2.67 1.79 3.34 4.82 5.73 8.43 6.62 7.04 1.73 14.12-2.77 15.8-10.02 1.67-7.25-2.69-14.56-9.72-16.29-3.99-0.98-8.15 0.02-11.31 2.67z"/>
								<path class="s9" d="m264.5 351.07c-1.79-3.34-4.82-5.73-8.43-6.62-7.03-1.72-14.12 2.77-15.8 10.02-1.67 7.26 2.69 14.56 9.72 16.29 3.99 0.98 8.15-0.02 11.31-2.66 1.79 3.33 4.82 5.72 8.43 6.61 7.04 1.73 14.12-2.76 15.8-10.02 1.67-7.25-2.69-14.56-9.72-16.28-3.99-0.98-8.15 0.01-11.31 2.66z"/>
								<path class="s9" d="m315.71 315.87c-1.79-3.33-4.82-5.72-8.43-6.61-7.04-1.73-14.12 2.76-15.8 10.02-1.68 7.25 2.68 14.56 9.72 16.28 3.98 0.98 8.15-0.01 11.31-2.66 1.78 3.34 4.82 5.73 8.43 6.61 7.03 1.73 14.12-2.76 15.79-10.02 1.68-7.25-2.68-14.55-9.71-16.28-3.99-0.98-8.15 0.02-11.31 2.66z"/>
								<path class="s9" d="m332.95 382.28c-1.78-3.34-4.81-5.73-8.43-6.62-7.03-1.73-14.12 2.77-15.79 10.02-1.68 7.25 2.68 14.56 9.72 16.29 3.98 0.98 8.15-0.02 11.31-2.67 1.78 3.34 4.81 5.73 8.43 6.62 7.03 1.73 14.12-2.77 15.79-10.02 1.68-7.25-2.68-14.56-9.71-16.29-3.99-0.98-8.16 0.02-11.32 2.67z"/>
								<path class="s9" d="m216.91 394.4c-1.78-3.34-4.81-5.73-8.43-6.62-7.03-1.72-14.12 2.77-15.79 10.02-1.68 7.26 2.68 14.56 9.72 16.29 3.98 0.98 8.15-0.02 11.31-2.66 1.78 3.33 4.81 5.72 8.43 6.61 7.03 1.73 14.12-2.77 15.79-10.02 1.68-7.25-2.68-14.56-9.71-16.28-3.99-0.98-8.16 0.01-11.32 2.66z"/>
								<path class="s9" d="m146.7 417.27c-1.78-3.33-4.81-5.72-8.43-6.61-7.03-1.73-14.12 2.77-15.79 10.02-1.68 7.25 2.68 14.56 9.71 16.28 3.99 0.99 8.16-0.01 11.32-2.66 1.78 3.34 4.81 5.73 8.43 6.62 7.03 1.72 14.11-2.77 15.79-10.02 1.68-7.26-2.68-14.56-9.72-16.29-3.98-0.98-8.15 0.02-11.31 2.66z"/>
								<path class="s9" d="m211.57 255.98c-1.78-3.34-4.81-5.73-8.43-6.62-7.03-1.73-14.12 2.77-15.8 10.02-1.67 7.25 2.69 14.56 9.72 16.29 3.99 0.98 8.15-0.02 11.31-2.67 1.79 3.34 4.82 5.73 8.43 6.62 7.04 1.73 14.12-2.77 15.8-10.02 1.67-7.25-2.68-14.56-9.72-16.29-3.98-0.98-8.15 0.02-11.31 2.67z"/>
							</g>
						</g>
					</g>
					<path class="s2" d="m312.22 283.53c0 0 26.4 43.6 17.59 142.55h-182.56c0 0-2.6-106.26 35.41-148.74"/>
				</g>
				<g>
					<path class="s10" d="m256.1 265.37c-9.56-0.88-34.09-3.65-39.76-24.16-6.37-23.08 17.96-33.72 42.98-20.96 12.54 6.38 33.98-1.85 37.14 15.04 3.09 16.53-16.4 32.27-40.36 30.08z"/>
					<g>
						<path class="s2" d="m226.7 226.45c0 0 18.5 30.78 60.64 8.84"/>
						<path class="s2" d="m231.79 232.46c0 0-5.98 4.56-10.71 10.72"/>
						<path class="s2" d="m240.04 238.48c0 0-5.93 6.04-10.59 14.76"/>
						<path class="s2" d="m253.78 243.18c0 0-2.47 10.99-2.77 16.3"/>
						<path class="s2" d="m267.22 242.43c0 0 2.53 6.01 3.18 14.64"/>
						<path class="s2" d="m280.16 238.48c0 0 3.54 5.84 5.22 12.21"/>
					</g>
				</g>
				<g>
					<path class="s4" d="m315.35 389.05c-5.02-2.1-28.88-1.34-28.88-1.34-18.84 0.34-38.89 3.26-53.99 8.06-16.12 5.12-34.25 21.23-32.74 32.19 1.5 10.91 9.73 6.99 9.8 6.95 2.13 3.82 7.28 4.99 11.99 2.7 2.5 2.15 6.61 2.57 10.75 0.7 2.45 3.5 8.54 4.64 18.02-0.1 18.99-9.49 45.64-5.39 45.64-5.39 0 0 50.91 2.44 56.12-22.61q0.12-0.6 0.23-1.2c-10.71-7.9-32.36-18.04-36.94-19.96z"/>
					<g>
						<path class="s2" d="m352.06 410.21c-5.21 25.05-56.13 22.61-56.13 22.61 0 0-26.64-4.09-45.63 5.39-19 9.49-24.37-4.6-14.19-14 10.17-9.39 22.96-9.67 22.96-9.67"/>
						<path class="s2" d="m250.08 410.21c0 0-21.04 1.8-28.42 14-7.01 11.6 1.72 18.12 10.62 14.1"/>
						<path class="s2" d="m239.07 405.46c0 0-21.01 4.14-28.35 17.84-6.49 12.11 2.81 18.19 10.81 14.32"/>
						<path class="s2" d="m209.55 434.91c0 0-8.31 4.01-9.81-6.95-1.51-10.96 16.62-27.07 32.74-32.19 22.01-6.99 64.35-11.75 89.53-5.34"/>
					</g>
				</g>
			</g>
		</g>
		<g>
			<g>
				<g>
					<path class="s11" d="m55.5 415.18c0 11.47 9.3 20.77 20.77 20.77 11.47 0 20.77-9.3 20.77-20.77 0-11.47-9.3-20.76-20.77-20.76-11.47 0-20.77 9.29-20.77 20.76zm7.65 0c0-7.24 5.87-13.12 13.12-13.12 7.25 0 13.12 5.88 13.12 13.12 0 7.25-5.87 13.13-13.12 13.13-7.25-0.01-13.12-5.88-13.12-13.13z"/>
					<path class="s11" d="m86.79 448.51h34.44c6.3 0 11.4-5.1 11.4-11.39v-43.14c0-6.29-5.1-11.39-11.4-11.39h-34.44c-6.29 0-11.4 5.1-11.4 11.39v43.14c0 6.29 5.11 11.39 11.4 11.39z"/>
				</g>
				<path class="s2" d="m115.57 373.03c17-5.22 15.62-29.88 0-41.06-13.15-9.41-2.1-13.56-6.39-38.77-4.29-25.2-27.33-37.69-54.32-25.39-26.99 12.29-30.62 57.3-0.07 70.67 21.81 9.54 33.66-4.97 35.06 17.63 0.63 10.17 11.51 21.29 25.72 16.92z"/>
				<g>
					<path class="s8" d="m107.01 433.45c-1.64 1.05-3.76 0.99-5.35-0.12-5.71-3.98-18.55-14.19-17.73-25.06 0.91-11.93 15.67-10.23 20.88 0 0 0 5.13-9.61 13.59-8.37 9.38 1.38 11.3 19.12-11.39 33.55z"/>
					<g>
						<path fill-rule="evenodd" class="s7" d="m93.29 417c-0.95 0-1.72-1.24-1.72-2.77 0-1.53 0.77-2.77 1.72-2.77 0.95 0 1.72 1.24 1.72 2.77 0 1.53-0.77 2.77-1.72 2.77z"/>
						<path fill-rule="evenodd" class="s7" d="m114.08 417c-0.95 0-1.72-1.24-1.72-2.77 0-1.53 0.77-2.77 1.72-2.77 0.95 0 1.72 1.24 1.72 2.77 0 1.53-0.77 2.77-1.72 2.77z"/>
					</g>
					<path class="s2" d="m108.56 414.64c0 2.88-1.84 5.22-4.11 5.22-2.28 0-4.12-2.34-4.12-5.22"/>
				</g>
			</g>
			<g>
				<path class="s7" d="m418.46 447.02l-105.94 0.2c-10.99 0.02-16.68-8.52-12.69-19.07l27.76-73.52c3.99-10.55 16.13-19.11 27.13-19.13l105.94-0.2c10.99-0.02 16.68 8.52 12.7 19.06l-27.77 73.53c-3.99 10.54-16.13 19.11-27.13 19.13z"/>
				<path class="s4" d="m402.47 385.43c-1.24 4.67-6.03 8.46-10.7 8.47-4.67 0.01-7.44-3.77-6.2-8.44 1.24-4.67 6.03-8.46 10.7-8.47 4.67-0.01 7.44 3.77 6.2 8.44z"/>
				<path class="s7" d="m235.74 444.68l-0.02-10.77c-0.01-1.4 1.13-2.54 2.53-2.54l106.73-0.19c1.4-0.01 2.54 1.13 2.54 2.53l0.02 10.77c0 1.4-1.13 2.54-2.53 2.54l-106.73 0.2c-1.4 0-2.54-1.14-2.54-2.54z"/>
			</g>
		</g>
	</g>
</svg>