<svg version="1.2" xmlns="http://www.w3.org/2000/svg" viewBox="0 0 750 500" width="750" height="500">
	<defs>
		<clipPath clipPathUnits="userSpaceOnUse" id="cp1">
			<path d="m393.81 251.23c5.45 7.6 14.75 17.15 32.98 13.03 9.67-2.19 17.94-9.08 20.83-19.75 0 0-44.92-75.25-91.4-78.79-46.48-3.54 37.59 85.51 37.59 85.51z"/>
		</clipPath>
		<clipPath clipPathUnits="userSpaceOnUse" id="cp2">
			<path d="m389.33 190.25c-16.07-33.26-53.91-30.61-53.91-30.61h-0.66c-10.56 4.35-49.92 27.48-47.46 71.17 2.21 39.37 39.25 43.19 52.92 40.36l7.83-0.33 55.66 1.06c0 0 1.7-48.39-14.38-81.65z"/>
		</clipPath>
		<clipPath clipPathUnits="userSpaceOnUse" id="cp3">
			<path d="m327.38 180.7c-4.37 12.66-9.63 25.31-13.63 28.28l5.33 44.68 20.2 17.52c13.42-2.83 22.37-12.79 25.45-26.67 2.42-10.93-0.34-39.1-0.81-55.22-13.11-2.4-28.88-6.51-36.54-8.59z"/>
		</clipPath>
		<clipPath clipPathUnits="userSpaceOnUse" id="cp4">
			<path d="m439.83 207.86c-3.68-6.27-6.54-11.52-8.82-16.08l-31.41 12.09c1.96 8.24 2.91 18.45 3.73 21.3 0 0 1.1 12.15 2.71 22.48 1.61 10.33 10.13 17.52 10.13 17.52 3.16 0.23 6.68-0.02 10.62-0.91 18.23-4.13 31.51-24.98 13.04-56.4z"/>
		</clipPath>
	</defs>
	<style>
		.s0 { fill: none;stroke: #d4d4d4;stroke-linecap: round;stroke-linejoin: round;stroke-width: .8 } 
		.s1 { fill: #d4d4d4 } 
		.s2 { fill: none;stroke: #000000;stroke-linecap: round;stroke-linejoin: round;stroke-width: .8 } 
		.s3 { fill: #d4d4d4;stroke: #000000;stroke-miterlimit:10;stroke-width: .8 } 
		.s4 { fill: #000000 } 
		.s5 { fill: #d4d4d4;stroke: #000000;stroke-miterlimit:10;stroke-width: .7 } 
		.s6 { fill: #d4d4d4;stroke: #000000;stroke-linecap: round;stroke-linejoin: round;stroke-width: .8 } 
		.s7 { fill: #ffffff;stroke: #000000;stroke-linecap: round;stroke-linejoin: round;stroke-width: .7 } 
		.s8 { fill: #ffffff } 
		.s9 { fill: #ed5d1c;stroke: #000000;stroke-linecap: round;stroke-linejoin: round;stroke-width: .8 } 
		.s10 { fill: #ffffff;stroke: #000000;stroke-linecap: round;stroke-linejoin: round;stroke-width: .8 } 
		.s11 { fill: none;stroke: #ed5d1c;stroke-miterlimit:10;stroke-width: .8 } 
		.s12 { fill: #ed5d1c;stroke: #000000;stroke-miterlimit:10;stroke-width: .8 } 
		.s13 { fill: #000000;stroke: #000000;stroke-miterlimit:10;stroke-width: .8 } 
		.s14 { fill: #ffffff;stroke: #000000;stroke-miterlimit:10;stroke-width: .8 } 
		.s15 { fill: #ed5d1c } 
		.s16 { fill: none;stroke: #ffffff;stroke-miterlimit:10;stroke-width: 1 } 
	</style>
	<g id="OBJECTS">
		<g>
			<path class="s0" d="m50.44 100.01c0 0 106.88-19.23 137.75 59.58 41.39 105.66 180.62 111.21 248.18 80.47 67.57-30.75 163.8-62.86 206.9-15.94 30.37 33.07-0.61 46.41-10.8 31.28-10.2-15.14 9.34-74.91 63.04-45.28"/>
			<path class="s0" d="m50.44 293.36c0 0 42.62-10.12 40.41-35.68-2.22-25.57-28.55 9.58 2.21 25.56"/>
			<path class="s0" d="m451.04 113.18c0 0 30.15-58.69 53.85-49.04 23.7 9.64-23.65 34.55-6.4-21.57"/>
			<path fill-rule="evenodd" class="s1" d="m652.82 151.88l11.78-8.05 6.29 15.76z"/>
			<path fill-rule="evenodd" class="s1" d="m689.05 340.11l12.91 4.96-7.75 7.44z"/>
			<path fill-rule="evenodd" class="s1" d="m96.95 162.85l-12.21-6.61 11.25-8.97z"/>
			<path fill-rule="evenodd" class="s2" d="m672.42 276.99l18.93-10.2"/>
			<path fill-rule="evenodd" class="s2" d="m293.7 107.31l-26-15.98"/>
			<path fill-rule="evenodd" class="s2" d="m316.81 77.87l-13.17-30.3"/>
			<path fill-rule="evenodd" class="s2" d="m397.73 102.25l11.18-16.74"/>
			<path fill-rule="evenodd" class="s2" d="m60.23 225.58l-12.19-6.24"/>
		</g>
		<g>
			<g>
				<g>
					<g>
						<path fill-rule="evenodd" class="s3" d="m351.06 404.61h-9.68v-79.08h9.68z"/>
						<path class="s4" d="m343.06 422.04h6.32c2.37 0 4.29-1.93 4.29-4.29v-51.14c0-2.37-1.92-4.29-4.29-4.29h-6.32c-2.37 0-4.29 1.92-4.29 4.29v51.14c0 2.36 1.92 4.29 4.29 4.29z"/>
					</g>
					<path class="s4" d="m382.8 416.68h-72.39-2.8c-1.55 0-2.81 1.26-2.81 2.81v3.96 17.4c0 1.55 1.26 2.81 2.81 2.81 1.55 0 2.8-1.26 2.8-2.81v-14.6c0-1.55 1.26-2.8 2.81-2.8h66.78c1.55 0 2.8 1.25 2.8 2.8v14.6c0 1.55 1.26 2.81 2.81 2.81 1.55 0 2.8-1.26 2.8-2.81v-21.36c0-1.55-1.25-2.81-2.8-2.81z"/>
					<g>
						<g>
							<path class="s3" d="m296.93 446.15c0 6 4.87 10.87 10.88 10.87 6 0 10.87-4.87 10.87-10.87 0-6.01-4.87-10.88-10.87-10.88-6.01 0.01-10.88 4.87-10.88 10.88z"/>
							<path class="s4" d="m303.64 446.15c0 2.3 1.87 4.16 4.17 4.16 2.3 0 4.16-1.86 4.16-4.16 0-2.3-1.86-4.17-4.16-4.17-2.3 0-4.17 1.87-4.17 4.17z"/>
						</g>
						<g>
							<path fill-rule="evenodd" class="s5" d="m386.59 456.88c-5.94 0.94-11.49-3.1-12.43-9.04-0.94-5.94 3.1-11.5 9.04-12.44 5.94-0.93 11.5 3.11 12.43 9.05 0.94 5.93-3.1 11.49-9.04 12.43z"/>
							<path class="s4" d="m380.77 446.15c0 2.3 1.87 4.16 4.17 4.16 2.3 0 4.16-1.86 4.16-4.16 0-2.3-1.86-4.17-4.16-4.17-2.3 0-4.17 1.87-4.17 4.17z"/>
						</g>
					</g>
				</g>
				<path class="s6" d="m277.26 327.07c-5-10.13-7.15-16.77-8.31-41.59-1.42-30.44-3.44-73.64 9.96-94.53 13.39-20.9 58.43-11.28 62.36 6.14 5.72 25.35 13.39 88.39 41.25 94.82 27.86 6.43 43.63 12.71 42.86 34.29-1 27.78-131.66 34.24-148.12 0.87z"/>
			</g>
			<g>
				<g>
					<g>
						<path fill-rule="evenodd" class="s7" d="m395.28 142.52c-0.39 12.88-11.12 22.97-23.99 22.58-12.88-0.4-22.97-11.12-22.57-24 0.39-12.87 11.11-22.96 23.99-22.57 12.88 0.39 22.97 11.12 22.57 23.99z"/>
					</g>
					<path class="s4" d="m352.07 153.84c-3.28-5.44-4.33-12.19-2.36-18.75 3.71-12.32 16.71-19.3 29.03-15.59 9.67 2.92 16.05 11.56 16.55 21.1-3.8-2.54-8.26-6.42-10.04-11.45 0 0-10.28 12.62-28.68 7.16z"/>
					<g>
						<path class="s8" d="m351.33 136.72c-0.92 3.06 0.81 6.28 3.86 7.2 3.06 0.92 6.28-0.81 7.2-3.86 0.92-3.06-0.81-6.28-3.86-7.2-3.06-0.92-6.28 0.81-7.2 3.86z"/>
						<path class="s2" d="m360.93 137.89c-0.19-1.56-1.28-2.95-2.89-3.43-2.17-0.65-4.45 0.58-5.11 2.74-0.65 2.17 0.58 4.46 2.75 5.12"/>
					</g>
					<path fill-rule="evenodd" class="s4" d="m364.94 108.65c-0.74 8.5-8.22 14.78-16.72 14.04-8.51-0.75-14.78-8.22-14.04-16.73 0.74-8.5 8.22-14.78 16.72-14.03 8.51 0.74 14.78 8.21 14.04 16.72z"/>
				</g>
				<g>
					<path class="s4" d="m373.67 140.91c-0.39 1.29 0.09 2.57 1.06 2.86 0.97 0.29 2.07-0.51 2.46-1.8 0.39-1.29-0.08-2.57-1.06-2.86-0.97-0.29-2.07 0.51-2.46 1.8z"/>
					<path class="s4" d="m387.18 142.11c-0.37 1.21 0.08 2.41 0.99 2.68 0.91 0.28 1.94-0.48 2.3-1.68 0.37-1.21-0.08-2.41-0.99-2.68-0.91-0.28-1.94 0.48-2.3 1.68z"/>
					<path fill-rule="evenodd" class="s2" d="m383.12 138.51l2.41 6.62-4.62-0.27"/>
					<path class="s2" d="m379.16 149.24c0 0 1.83-1.02 3.13 0 1.31 1.02 2.61 0.69 3.55 0"/>
				</g>
				<g>
					<g>
						<g>
							<path class="s9" d="m441.72 422.08c-0.43-20.65-21.44-25.97-16.7-50.42-22.79-3.46-50.3-19.56-63.22-27.66-0.91 2.14-2.29 4.29-3.25 6.41-2.89 6.38-5.96 12.6-8.82 18.15-10.5 20.36-20.47 41.04-13.6 47.24 6.86 6.2 11.52 1.79 16.69-2.51 5.17-4.31 13.09-3.69 18.08 4.16 5 7.86 7.94 24.47 27.38 36.03 19.43 11.57 43.85-11.59 43.44-31.4z"/>
							<g>
								<path class="s2" d="m350.45 396.22c0 0 16.48-0.76 25.25 9.83 8.77 10.58 22.89 36.59 47.44 32.93"/>
								<path class="s2" d="m410.96 393.53c0 0 9.72-1.9 17.06-0.83"/>
								<path class="s2" d="m416.52 402.76c0 0 10.98-3.83 16.31-2.28"/>
								<path class="s2" d="m415.95 383.92c0 0 23.68-21.71 46.25-18.34"/>
								<path class="s2" d="m416.12 384.04c0 0 33.51-12.65 35.59-2.73 2.77 13.25-35.59 2.73-35.59 2.73z"/>
							</g>
						</g>
						<g>
							<path class="s10" d="m420.45 280.27c0 0 25.72-9.78 31.91 17.22 4.72 20.57-25.35 58.21-27.53 76.78 0 0-31.07 2.72-65.21-25.89 0 0 29.06-58.21 60.83-68.11z"/>
							<path class="s2" d="m369.02 339.01c0 0 18.96 16.54 54.12 24.04"/>
						</g>
					</g>
					<g>
						<g>
							<path class="s10" d="m480.36 374.1c-1.81-2.28-3.46-5-4.88-8.34-10.39-24.4-34.4-80.9-52.34-85.49-17.94-4.59-124.65-31.32-124.65-31.32 0 0-7.18 26.29-3.96 49.19 2.9 20.6 15.56 33.33 45.2 33.33 31.42 0 38.41-8.87 49.4 0 8.14 6.58 12.86 37.06 16.31 56.82 17.3 0.38 52.72-0.69 74.92-14.19z"/>
							<path class="s2" d="m404.31 370.41c0 0 38.51 0.42 62.12-11.51"/>
							<path fill-rule="evenodd" class="s2" d="m390.11 316.05l-3.45 13.69 12.31-3.75"/>
						</g>
						<g>
							<path class="s9" d="m520.11 399.86c-12.66-17.67-34.08-9.78-44.51-33.84-21.85 10.57-55.7 13.22-71.74 13.89 1.95 9.59 3.43 19.56 4.52 28.24 3.01 23.93 6.66 47.82 16.31 49.12 9.65 1.29 11.08-5.3 13-12.12 1.93-6.82 9.17-10.99 18.19-7.15 9.01 3.85 21.46 16.51 45.21 14.99 23.76-1.53 31.17-36.18 19.02-53.13z"/>
							<g>
								<path class="s2" d="m425.48 431.74c0 0 13.85-10.47 27.77-6.5 13.91 3.97 41.65 18.15 60.8 0.36"/>
								<path class="s2" d="m476.41 393.38c0 0 7.31-7.43 14.32-10.87"/>
								<path class="s2" d="m486.73 398.08c0 0 7.26-9.86 12.8-11.68"/>
								<path class="s2" d="m475.03 382.07c0 0 7.63-32.95 29.23-43.46"/>
								<path class="s2" d="m475.24 382.07c0 0 21.57-30.94 29.27-23.56 10.3 9.86-29.27 23.56-29.27 23.56z"/>
							</g>
						</g>
					</g>
					<g>
						<path class="s8" d="m393.81 251.23c5.45 7.6 14.75 17.15 32.98 13.03 9.67-2.19 17.94-9.08 20.83-19.75 0 0-44.92-75.25-91.4-78.79-46.48-3.54 37.59 85.51 37.59 85.51z"/>
						<g>
							<g id="Clip-Path" clip-path="url(#cp1)">
								<g>
									<path class="s11" d="m384.37 194.46c-1.53-0.19-2.61-1.59-2.42-3.13l1.18-9.13c0.19-1.53 1.6-2.61 3.13-2.42 1.53 0.2 2.61 1.6 2.41 3.13l-1.17 9.14c-0.2 1.53-1.6 2.61-3.13 2.41z"/>
									<path class="s11" d="m404.51 200.53c-0.93 1.23-2.68 1.48-3.91 0.55l-7.36-5.54c-1.23-0.93-1.48-2.68-0.55-3.91 0.93-1.24 2.69-1.48 3.92-0.55l7.35 5.54c1.24 0.92 1.48 2.68 0.55 3.91z"/>
									<path class="s11" d="m405.04 214.96c1.05 1.13 0.99 2.9-0.14 3.95l-6.74 6.28c-1.13 1.05-2.9 0.99-3.95-0.14-1.05-1.13-0.99-2.9 0.14-3.95l6.73-6.28c1.13-1.05 2.9-0.99 3.96 0.14z"/>
									<path class="s11" d="m408.39 252.37c1.29 0.85 1.64 2.58 0.8 3.87l-5.07 7.69c-0.85 1.29-2.58 1.65-3.87 0.8-1.29-0.85-1.65-2.59-0.8-3.87l5.07-7.69c0.85-1.3 2.58-1.65 3.87-0.8z"/>
								</g>
							</g>
						</g>
						<path class="s2" d="m393.81 251.23c5.45 7.6 14.75 17.15 32.98 13.03 9.67-2.19 17.94-9.08 20.83-19.75 0 0-44.92-75.25-91.4-78.79-46.48-3.54 37.59 85.51 37.59 85.51z"/>
					</g>
					<g>
						<path class="s8" d="m389.33 190.25c-16.07-33.26-53.91-30.61-53.91-30.61h-0.66c-10.56 4.35-49.92 27.48-47.46 71.17 2.21 39.37 39.25 43.19 52.92 40.36l7.83-0.33 55.66 1.06c0 0 1.7-48.39-14.38-81.65z"/>
						<g>
							<g id="Clip-Path" clip-path="url(#cp2)">
								<g>
									<path class="s11" d="m322.65 171.22c1.52-0.41 3.09 0.47 3.5 1.97l2.46 8.88c0.41 1.49-0.49 3.03-2 3.43-1.52 0.41-3.08-0.47-3.5-1.96l-2.45-8.89c-0.42-1.49 0.48-3.02 1.99-3.43z"/>
									<path class="s11" d="m316.13 191.93c1.01 1.18 0.85 2.95-0.35 3.94l-7.17 5.93c-1.21 0.99-3 0.84-4.02-0.35-1.01-1.18-0.85-2.94 0.35-3.93l7.18-5.93c1.2-0.99 3-0.84 4.01 0.34z"/>
									<path class="s11" d="m312.25 230.65c-1.41 0.69-3.12 0.13-3.82-1.25l-4.2-8.24c-0.71-1.38-0.14-3.06 1.27-3.75 1.41-0.69 3.12-0.13 3.82 1.25l4.2 8.23c0.7 1.39 0.13 3.07-1.27 3.76z"/>
									<path class="s11" d="m291.03 251.56c-1.5-0.47-2.33-2.04-1.85-3.51l2.84-8.78c0.47-1.47 2.07-2.28 3.57-1.81 1.5 0.46 2.33 2.04 1.85 3.51l-2.84 8.77c-0.47 1.48-2.07 2.29-3.57 1.82z"/>
									<path class="s11" d="m309.76 250.89c1.15-1.06 2.95-1.01 4.03 0.11l6.44 6.69c1.08 1.12 1.03 2.89-0.12 3.95-1.14 1.06-2.94 1.01-4.02-0.11l-6.44-6.69c-1.08-1.12-1.03-2.89 0.11-3.95z"/>
									<path class="s11" d="m331.73 265.04c1.3 0.86 1.65 2.6 0.77 3.88l-5.24 7.63c-0.88 1.28-2.65 1.62-3.96 0.76-1.3-0.86-1.64-2.6-0.76-3.88l5.24-7.64c0.88-1.28 2.64-1.61 3.95-0.75z"/>
									<path class="s11" d="m362.29 222.7c-0.72-1.37-0.16-3.05 1.24-3.76l8.34-4.19c1.4-0.71 3.12-0.16 3.83 1.21 0.72 1.38 0.17 3.06-1.23 3.76l-8.35 4.2c-1.4 0.7-3.11 0.16-3.83-1.22z"/>
									<path class="s11" d="m374.26 191.49c1.26-0.92 3.04-0.67 3.99 0.56l5.62 7.37c0.94 1.24 0.69 2.99-0.57 3.91-1.26 0.93-3.04 0.68-3.98-0.56l-5.63-7.36c-0.94-1.24-0.69-2.99 0.57-3.92z"/>
									<path class="s11" d="m371.43 180.11c-1.04-1.16-0.91-2.93 0.27-3.95l7.06-6.05c1.19-1.01 2.99-0.9 4.02 0.27 1.04 1.16 0.91 2.93-0.27 3.94l-7.07 6.06c-1.18 1.01-2.98 0.89-4.01-0.27z"/>
									<path class="s11" d="m390.77 209.87c0.97-1.21 2.76-1.42 4-0.47l7.38 5.68c1.23 0.95 1.45 2.71 0.48 3.92-0.97 1.22-2.76 1.43-4 0.48l-7.37-5.68c-1.24-0.95-1.46-2.71-0.49-3.93z"/>
									<path class="s11" d="m386.95 226.25c1.4 0.71 1.94 2.4 1.22 3.77l-4.32 8.17c-0.72 1.37-2.44 1.91-3.84 1.2-1.39-0.71-1.94-2.4-1.21-3.77l4.32-8.17c0.72-1.37 2.44-1.91 3.83-1.2z"/>
									<path class="s11" d="m374.02 249.69c1.4 0.72 1.94 2.4 1.22 3.78l-4.32 8.17c-0.73 1.37-2.45 1.9-3.84 1.19-1.4-0.71-1.94-2.4-1.22-3.77l4.32-8.17c0.73-1.37 2.45-1.91 3.84-1.2z"/>
									<path class="s11" d="m386.68 259.47c1.56-0.23 3 0.83 3.24 2.35l1.37 9.11c0.24 1.53-0.84 2.95-2.39 3.18-1.56 0.23-3.01-0.83-3.24-2.36l-1.38-9.1c-0.23-1.53 0.84-2.95 2.4-3.18z"/>
									<path class="s11" d="m405.84 254.48c-1.09 1.12-2.89 1.17-4.03 0.1l-6.79-6.35c-1.13-1.06-1.18-2.83-0.09-3.95 1.08-1.12 2.88-1.16 4.02-0.1l6.79 6.35c1.14 1.07 1.18 2.84 0.1 3.95z"/>
									<path class="s11" d="m296.38 207.08c0.94 1.23 0.69 2.99-0.56 3.92l-7.48 5.55c-1.25 0.93-3.04 0.69-3.99-0.55-0.94-1.23-0.7-2.98 0.56-3.91l7.48-5.55c1.25-0.93 3.04-0.69 3.99 0.54z"/>
									<path class="s11" d="m310.39 182.3c-1.29 0.88-3.06 0.56-3.96-0.71l-5.33-7.57c-0.9-1.27-0.58-3.01 0.72-3.89 1.29-0.88 3.06-0.56 3.96 0.71l5.33 7.57c0.9 1.27 0.57 3.02-0.72 3.89z"/>
								</g>
							</g>
						</g>
						<path class="s2" d="m389.33 190.25c-16.07-33.26-53.91-30.61-53.91-30.61h-0.66c-10.56 4.35-49.92 27.48-47.46 71.17 2.21 39.37 39.25 43.19 52.92 40.36l7.83-0.33 55.66 1.06c0 0 1.7-48.39-14.38-81.65z"/>
					</g>
					<g>
						<path class="s8" d="m375.44 160.66c4.48-6.06 3.58-9.85 0.22-10.52l1-0.11c1.34-2.16 2.57-8.3-3.69-8.08-2.66 0.09-5.54 1.91-7.97 3.96l-0.06-0.87c1.08-1.26 2.14-2.43 2.85-3.1 4.64-4.31 4.85-10.24-1.76-9.64q-0.92 0.09-1.89 0.43c0 0-1.63-4.22-8.58-1.56-6.95 2.66-17.62 12.49-20.75 25.03-3.14 12.55-14.05 47.57-21.06 52.78l25.52 62.2c13.43-2.83 22.37-12.79 25.45-26.67 3.08-13.88-2.21-55.62-0.53-65.09 1.67-9.47 6.35-12.13 11.25-18.76z"/>
						<g>
							<path class="s9" d="m328.21 178.24c-0.94 2.82-1.94 5.66-2.97 8.43 19.44-1.05 32.11 5.82 39.06 11.39-0.27-5.08-0.46-9.65-0.44-13.19-12.25-9.08-27.71-8.01-35.65-6.63z"/>
							<path fill-rule="evenodd" class="s2" d="m332.49 178.07l-1.64 8.52"/>
							<path fill-rule="evenodd" class="s2" d="m338.95 177.33l-1.37 9.76"/>
							<path fill-rule="evenodd" class="s2" d="m346.4 177.89l-1.52 10.6"/>
							<path fill-rule="evenodd" class="s2" d="m353.73 179.64l-1.38 11.36"/>
							<path fill-rule="evenodd" class="s2" d="m359.92 182.38l-1.02 11.93"/>
						</g>
						<g>
							<g id="Clip-Path" clip-path="url(#cp3)">
								<g>
									<path class="s11" d="m344.7 194.4c1.15 1.02 1.26 2.79 0.24 3.94l-6.1 6.9c-1.03 1.16-2.79 1.26-3.95 0.24-1.16-1.02-1.26-2.79-0.24-3.95l6.1-6.89c1.02-1.16 2.79-1.27 3.95-0.24z"/>
									<path class="s11" d="m325.58 198.72c-1.42 0.59-3.06-0.08-3.65-1.51l-3.54-8.5c-0.6-1.42 0.08-3.06 1.5-3.65 1.43-0.6 3.06 0.08 3.66 1.5l3.54 8.5c0.59 1.43-0.08 3.07-1.51 3.66z"/>
									<path class="s11" d="m355.19 213.35c0.97 1.2 0.79 2.96-0.41 3.93l-7.14 5.81c-1.2 0.97-2.96 0.79-3.94-0.41-0.97-1.2-0.79-2.96 0.41-3.93l7.14-5.81c1.2-0.97 2.96-0.79 3.94 0.41z"/>
									<path class="s11" d="m330.13 230.24c1.25 0.9 1.54 2.64 0.64 3.9l-5.37 7.48c-0.9 1.26-2.64 1.54-3.9 0.64-1.25-0.9-1.54-2.64-0.64-3.9l5.37-7.48c0.9-1.25 2.64-1.54 3.9-0.64z"/>
									<path class="s11" d="m348.86 233.5c1.47-0.5 3.05 0.29 3.55 1.75l2.95 8.72c0.49 1.46-0.29 3.05-1.75 3.55-1.47 0.49-3.05-0.29-3.55-1.76l-2.95-8.72c-0.49-1.46 0.29-3.05 1.75-3.54z"/>
									<path class="s11" d="m341.4 248.99c0.7 1.38 0.15 3.06-1.22 3.76l-8.2 4.19c-1.38 0.7-3.06 0.16-3.76-1.22-0.7-1.37-0.16-3.06 1.22-3.76l8.2-4.19c1.37-0.7 3.06-0.15 3.76 1.22z"/>
									<path class="s11" d="m359.99 232.26c-0.94-1.22-0.72-2.97 0.51-3.92l7.28-5.63c1.22-0.94 2.98-0.72 3.92 0.5 0.95 1.23 0.72 2.98-0.5 3.93l-7.28 5.63c-1.23 0.94-2.98 0.71-3.93-0.51z"/>
									<path class="s11" d="m350.93 255.51c1.54 0 2.8 1.25 2.8 2.8v9.2c0 1.55-1.26 2.8-2.8 2.8-1.54 0-2.8-1.25-2.8-2.8v-9.2c0-1.55 1.26-2.8 2.8-2.8z"/>
									<path class="s11" d="m364.57 212.81c-1.42 0.6-3.06-0.08-3.65-1.5l-3.54-8.5c-0.6-1.43 0.08-3.07 1.5-3.66 1.43-0.59 3.06 0.08 3.66 1.51l3.54 8.5c0.59 1.42-0.08 3.06-1.51 3.65z"/>
									<path class="s11" d="m320.96 208.72c1.47-0.49 3.05 0.31 3.54 1.78l2.89 8.74c0.49 1.46-0.31 3.05-1.78 3.53-1.46 0.49-3.04-0.31-3.53-1.78l-2.89-8.74c-0.49-1.46 0.31-3.04 1.77-3.53z"/>
								</g>
							</g>
						</g>
						<g>
							<path class="s2" d="m365.72 156.86c0 0 4.96-6.98 9.04-6.83 4.08 0.14 5.54 4.06 0.68 10.63-4.9 6.63-9.58 9.29-11.25 18.76-1.68 9.47 3.61 51.21 0.54 65.09-3.08 13.88-12.03 23.84-25.46 26.66"/>
							<path class="s2" d="m359.27 151.88c0 0 7.44-9.71 13.7-9.93 6.26-0.22 5.03 5.92 3.69 8.08"/>
							<path class="s2" d="m350.71 144.34c0 0 8.71-11.44 15.32-12.04 6.61-0.6 6.4 5.33 1.76 9.64-2.07 1.93-7.05 8.18-7.05 8.18"/>
							<path class="s2" d="m364.14 132.73c0 0-1.63-4.22-8.58-1.56-6.95 2.66-17.62 12.49-20.75 25.03-3.14 12.55-14.05 47.57-21.06 52.78"/>
						</g>
					</g>
					<g>
						<path class="s8" d="m439.83 207.86c-18.46-31.42-16.5-37.76-22.04-54.92-5.54-17.15-16.34-18.4-20.04-18.24-3.69 0.16-3.94 2.93-3.94 2.93-0.86 0.29-1.5 0.81-1.84 1.42-1.44 2.55 1.36 5.19 1.36 5.19l0.08 0.01c-1.21 0.02-2.15 0.65-2.66 1.89-1.26 3.09 1.34 4.55 4.53 8.92-7.08 16.94-0.5 34.13 2.9 43.8 2.97 8.46 4.15 22.85 5.15 26.31 0 0 1.1 12.15 2.71 22.48 1.61 10.33 10.14 17.52 10.14 17.52 3.15 0.23 6.67-0.02 10.61-0.91 18.23-4.13 31.51-24.98 13.04-56.4z"/>
						<g>
							<g id="Clip-Path" clip-path="url(#cp4)">
								<g>
									<path class="s11" d="m415.6 198.17c0.95-1.22 2.71-1.43 3.93-0.48l7.24 5.68c1.22 0.95 1.43 2.71 0.48 3.93-0.95 1.21-2.71 1.42-3.93 0.47l-7.24-5.68c-1.22-0.95-1.43-2.71-0.48-3.92z"/>
									<path class="s11" d="m416.32 210.88c1.48 0.45 2.32 2.01 1.88 3.49l-2.66 8.81c-0.45 1.48-2.01 2.32-3.48 1.87-1.48-0.44-2.32-2-1.87-3.48l2.65-8.82c0.45-1.48 2.01-2.31 3.48-1.87z"/>
									<path class="s11" d="m417.88 241.56c-0.95 1.22-2.71 1.43-3.93 0.48l-7.25-5.67c-1.21-0.95-1.43-2.71-0.48-3.93 0.96-1.21 2.71-1.43 3.93-0.48l7.25 5.68c1.22 0.95 1.43 2.71 0.48 3.92z"/>
									<path class="s11" d="m429.35 268.18c-1.28 0.86-3.01 0.52-3.88-0.76l-5.14-7.63c-0.87-1.28-0.53-3.02 0.75-3.88 1.28-0.87 3.02-0.53 3.88 0.75l5.15 7.64c0.86 1.28 0.52 3.02-0.76 3.88z"/>
									<path class="s11" d="m435.15 233.71c1.36 0.72 1.89 2.41 1.18 3.78l-4.26 8.16c-0.72 1.36-2.41 1.89-3.78 1.18-1.37-0.72-1.9-2.4-1.18-3.77l4.26-8.16c0.72-1.37 2.41-1.9 3.78-1.19z"/>
									<path class="s11" d="m443.44 206.69c1.37 0.71 1.9 2.4 1.18 3.77l-4.26 8.16c-0.72 1.37-2.41 1.9-3.78 1.18-1.37-0.71-1.9-2.4-1.18-3.77l4.26-8.16c0.72-1.37 2.41-1.9 3.78-1.18z"/>
									<path class="s11" d="m454.38 251.82c-1.16 1.02-2.93 0.91-3.95-0.24l-6.09-6.9c-1.03-1.16-0.92-2.93 0.24-3.95 1.16-1.02 2.92-0.91 3.95 0.24l6.09 6.91c1.02 1.15 0.92 2.92-0.24 3.94z"/>
									<path class="s11" d="m408.39 252.37c1.29 0.85 1.64 2.58 0.8 3.87l-5.07 7.69c-0.85 1.29-2.58 1.65-3.87 0.8-1.29-0.85-1.65-2.59-0.8-3.87l5.07-7.69c0.85-1.3 2.58-1.65 3.87-0.8z"/>
								</g>
							</g>
						</g>
						<g>
							<path class="s9" d="m429.28 188.22c-15.23 1.84-26.76 7.52-31.3 10.07q0.1 0.29 0.2 0.57c1.13 3.23 2 7.33 2.71 11.35 13.18-9.44 26.54-11.58 33.48-12-2.01-3.71-3.69-7.02-5.09-9.99z"/>
							<path fill-rule="evenodd" class="s2" d="m402.27 196.08l4.1 10.61"/>
							<path fill-rule="evenodd" class="s2" d="m408.91 193.25l4.3 10.03"/>
							<path fill-rule="evenodd" class="s2" d="m416.18 190.86l4.27 9.73"/>
							<path fill-rule="evenodd" class="s2" d="m423.23 189.17l3.97 9.92"/>
						</g>
						<g>
							<path class="s2" d="m398.61 171.95c0 0 2.66-6.83-1.31-13.79-3.97-6.95-8.07-8.29-6.55-12.02 1.52-3.73 6.93-2.05 11.88 5.74"/>
							<path class="s2" d="m393.33 144.24c0 0-2.8-2.64-1.36-5.19 1.44-2.56 8.04-3.62 15.37 7.86"/>
							<path class="s2" d="m393.81 137.63c0 0 0.25-2.77 3.94-2.93 3.7-0.16 14.5 1.09 20.04 18.24 5.54 17.16 3.58 23.5 22.04 54.92 18.47 31.42 5.19 52.27-13.04 56.4-3.94 0.89-7.46 1.14-10.62 0.91"/>
							<path class="s2" d="m403.33 225.17c-1-3.46-2.18-17.85-5.15-26.31-3.4-9.66-9.98-26.86-2.89-43.8"/>
						</g>
					</g>
				</g>
			</g>
		</g>
		<g>
			<g>
				<path class="s12" d="m235.78 237.84h-83.59c-3.71 0-6.72-3.01-6.72-6.73v-12.89c0-3.71 3.01-6.72 6.72-6.72h83.59c3.72 0 6.73 3.01 6.73 6.72v12.89c-0.01 3.71-3.01 6.73-6.73 6.73z"/>
				<path class="s8" d="m202.9 230.53h-44.8c-2.18 0-3.94-1.76-3.94-3.94v-3.85c0-2.18 1.76-3.94 3.94-3.94h44.8c2.17 0 3.93 1.76 3.93 3.94v3.85c0 2.18-1.76 3.94-3.93 3.94z"/>
				<path class="s8" d="m236.22 224.67c0 2.76-2.25 5.01-5.01 5.01-2.77 0-5.01-2.25-5.01-5.01 0-2.77 2.24-5.01 5.01-5.01 2.76 0 5.01 2.24 5.01 5.01z"/>
			</g>
			<g>
				<path class="s13" d="m222.85 211.08h-83.58c-3.72 0-6.73-3.01-6.73-6.72v-12.89c0-3.71 3.01-6.72 6.73-6.72h83.58c3.72 0 6.73 3.01 6.73 6.72v12.89c0 3.71-3.01 6.72-6.73 6.72z"/>
				<path class="s8" d="m189.97 203.78h-44.8c-2.17 0-3.94-1.76-3.94-3.94v-3.85c0-2.18 1.77-3.94 3.94-3.94h44.8c2.17 0 3.93 1.76 3.93 3.94v3.85c0 2.18-1.76 3.94-3.93 3.94z"/>
				<path class="s8" d="m223.29 197.91c0 2.77-2.25 5.01-5.01 5.01-2.77 0-5.01-2.24-5.01-5.01 0-2.76 2.24-5 5.01-5 2.76 0 5.01 2.24 5.01 5z"/>
			</g>
			<g>
				<path class="s12" d="m664.17 376.4h-83.59c-3.71 0-6.72-3.01-6.72-6.72v-12.89c0-3.71 3.01-6.72 6.72-6.72h83.59c3.71 0 6.72 3.01 6.72 6.72v12.89c0 3.71-3.01 6.72-6.72 6.72z"/>
				<path class="s8" d="m631.28 369.1h-44.8c-2.17 0-3.93-1.77-3.93-3.94v-3.86c0-2.17 1.76-3.93 3.93-3.93h44.8c2.18 0 3.94 1.76 3.94 3.93v3.86c0 2.17-1.76 3.94-3.94 3.94z"/>
				<path class="s8" d="m664.6 363.23c0 2.77-2.24 5.01-5.01 5.01-2.76 0-5.01-2.24-5.01-5.01 0-2.76 2.25-5.01 5.01-5.01 2.77 0 5.01 2.25 5.01 5.01z"/>
			</g>
			<g>
				<path class="s13" d="m664.17 349.65h-83.59c-3.71 0-6.72-3.01-6.72-6.72v-12.89c0-3.72 3.01-6.73 6.72-6.73h83.59c3.71 0 6.72 3.01 6.72 6.73v12.89c0 3.71-3.01 6.72-6.72 6.72z"/>
				<path class="s8" d="m631.28 342.35h-44.8c-2.17 0-3.93-1.77-3.93-3.94v-3.86c0-2.17 1.76-3.93 3.93-3.93h44.8c2.18 0 3.94 1.76 3.94 3.93v3.86c0 2.17-1.76 3.94-3.94 3.94z"/>
				<path class="s8" d="m664.6 336.48c0 2.77-2.24 5.01-5.01 5.01-2.76 0-5.01-2.24-5.01-5.01 0-2.77 2.25-5.01 5.01-5.01 2.77 0 5.01 2.24 5.01 5.01z"/>
			</g>
			<g>
				<path class="s3" d="m671.55 322.9h-76.97c-3.71 0-6.72-3.01-6.72-6.73v-11.09c0-3.71 3.01-6.72 6.72-6.72h76.97c3.72 0 6.73 3.01 6.73 6.72v11.1c0 3.71-3.01 6.72-6.73 6.72z"/>
				<path class="s8" d="m641.1 316.09h-41.21c-2.17 0-3.93-1.76-3.93-3.93v-3.06c0-2.18 1.76-3.94 3.93-3.94h41.21c2.17 0 3.94 1.76 3.94 3.94v3.06c-0.01 2.17-1.77 3.93-3.94 3.93z"/>
				<path class="s8" d="m672.42 310.63c0 2.57-2.09 4.67-4.67 4.67-2.58 0-4.67-2.09-4.67-4.67 0-2.58 2.09-4.67 4.67-4.67 2.58 0 4.67 2.09 4.67 4.67z"/>
			</g>
			<g>
				<path class="s3" d="m141.9 364.45h-76.97c-3.71 0-6.72-3.01-6.72-6.73v-11.09c0-3.71 3.01-6.72 6.72-6.72h76.97c3.72 0 6.73 3.01 6.73 6.72v11.09c0 3.72-3.01 6.73-6.73 6.73z"/>
				<path class="s8" d="m111.45 357.64h-41.21c-2.17 0-3.93-1.76-3.93-3.93v-3.06c0-2.18 1.76-3.94 3.93-3.94h41.21c2.17 0 3.94 1.76 3.94 3.94v3.06c0 2.17-1.77 3.93-3.94 3.93z"/>
				<path class="s8" d="m142.77 352.18c0 2.57-2.09 4.67-4.67 4.67-2.58 0-4.67-2.09-4.67-4.67 0-2.58 2.09-4.67 4.67-4.67 2.57 0 4.67 2.09 4.67 4.67z"/>
			</g>
			<g>
				<path class="s14" d="m150 339.91h-76.97c-3.71 0-6.72-3.01-6.72-6.73v-11.09c0-3.72 3.01-6.73 6.72-6.73h76.97c3.72 0 6.73 3.01 6.73 6.73v11.09c-0.01 3.72-3.01 6.73-6.73 6.73z"/>
				<path class="s10" d="m119.55 333.1h-41.21c-2.17 0-3.94-1.76-3.94-3.94v-3.05c0-2.18 1.77-3.94 3.94-3.94h41.21c2.17 0 3.93 1.76 3.93 3.94v3.05c0 2.18-1.76 3.94-3.93 3.94z"/>
				<path fill-rule="evenodd" class="s10" d="m146.2 332.3c-2.59 0-4.67-2.08-4.67-4.66 0-2.59 2.08-4.67 4.67-4.67 2.58 0 4.66 2.08 4.66 4.67 0 2.58-2.08 4.66-4.66 4.66z"/>
			</g>
			<g>
				<path fill-rule="evenodd" class="s10" d="m61.58 371.16h111.79v85.06h-111.79z"/>
				<path class="s10" d="m130.26 398.05h-25.57c-1.93 0-3.5-1.57-3.5-3.5v-5.5c0-1.93 1.57-3.49 3.5-3.49h25.57c1.93 0 3.49 1.56 3.49 3.49v5.5c0 1.93-1.56 3.5-3.49 3.5z"/>
				<g>
					<path fill-rule="evenodd" class="s2" d="m90.42 410.59h54.11"/>
					<path fill-rule="evenodd" class="s2" d="m90.42 418.63h54.11"/>
					<path fill-rule="evenodd" class="s2" d="m90.42 426.68h54.11"/>
				</g>
				<path fill-rule="evenodd" class="s10" d="m55.61 364.31h123.73v13.7h-123.73z"/>
			</g>
			<g>
				<path fill-rule="evenodd" class="s8" d="m266.51 390.8h-10.27-122.67l-5.73-0.51 0.45 23.93h13.61l-0.36 24.64h-4.38l0.53 17.36h128.04l0.09-17.36h-5.1l-1.08-24.64h5.55z"/>
				<g>
					<path fill-rule="evenodd" class="s1" d="m218.46 401.7l47.28 2.73 0.21-3.77z"/>
					<path fill-rule="evenodd" class="s1" d="m259.93 420.72l-0.18-4.04-77.17 1.98z"/>
					<path fill-rule="evenodd" class="s1" d="m141.54 438.86h-4.38l0.12 3.94 97.71-3.94z"/>
				</g>
				<g>
					<path fill-rule="evenodd" class="s15" d="m149.51 402.54l-4.19 7.7 6.37-1.52 2.17 2.71 4.82-8.89z"/>
					<path fill-rule="evenodd" class="s15" d="m239.47 424.72l2.74 9.63 1.66-4.82 5.22 4.82-0.66-9.63z"/>
				</g>
				<g>
					<path class="s2" d="m131.87 395.82c1.61 0 124.04 0 124.04 0"/>
					<path class="s2" d="m137.16 402.54c0.87 0 67.46 0 67.46 0"/>
					<path fill-rule="evenodd" class="s2" d="m128.39 414.22h136.47"/>
					<path fill-rule="evenodd" class="s2" d="m142.71 424.72h115.68"/>
					<path fill-rule="evenodd" class="s2" d="m150.23 432.39h75.93"/>
					<path fill-rule="evenodd" class="s2" d="m137.16 438.86h128.03"/>
					<path fill-rule="evenodd" class="s2" d="m171.72 449.36h93.47"/>
				</g>
				<path fill-rule="evenodd" class="s2" d="m259.64 414.22h5.55l1.31-23.22h-138.64l0.43 23.22h13.61l-0.36 24.64h-4.38l0.53 17.36h128.04l0.09-17.36h-5.1z"/>
			</g>
			<g>
				<path fill-rule="evenodd" class="s6" d="m141.44 316.59h111.8v74.41h-111.8z"/>
				<path class="s10" d="m210.13 340.11h-25.58c-1.93 0-3.49-1.57-3.49-3.5v-3.93c0-1.93 1.56-3.5 3.49-3.5h25.58c1.92 0 3.49 1.57 3.49 3.5v3.93c0 1.93-1.57 3.5-3.49 3.5z"/>
				<g>
					<path fill-rule="evenodd" class="s2" d="m170.28 351.08h54.11"/>
					<path fill-rule="evenodd" class="s2" d="m170.28 358.12h54.11"/>
					<path fill-rule="evenodd" class="s2" d="m170.28 365.15h54.11"/>
				</g>
				<path fill-rule="evenodd" class="s6" d="m135.47 310.6h123.73v11.98h-123.73z"/>
			</g>
			<g>
				<path fill-rule="evenodd" class="s6" d="m569.87 381.81h111.79v74.41h-111.79z"/>
				<path class="s10" d="m638.55 405.33h-25.57c-1.93 0-3.5-1.56-3.5-3.49v-3.94c0-1.93 1.57-3.49 3.5-3.49h25.57c1.93 0 3.49 1.56 3.49 3.49v3.94c0 1.93-1.56 3.49-3.49 3.49z"/>
				<g>
					<path fill-rule="evenodd" class="s2" d="m598.71 416.3h54.11"/>
					<path fill-rule="evenodd" class="s2" d="m598.71 423.34h54.11"/>
					<path fill-rule="evenodd" class="s2" d="m598.71 430.38h54.11"/>
				</g>
				<path fill-rule="evenodd" class="s6" d="m563.9 375.82h123.73v11.98h-123.73z"/>
			</g>
			<g>
				<path fill-rule="evenodd" class="s6" d="m150.5 243.56h100.43v66.85h-100.44z"/>
				<path class="s10" d="m211.84 264.69h-22.26c-1.93 0-3.5-1.56-3.5-3.49v-2.83c0-1.93 1.57-3.49 3.5-3.49h22.26c1.93 0 3.5 1.56 3.5 3.49v2.83c0 1.93-1.57 3.49-3.5 3.49z"/>
				<g>
					<path fill-rule="evenodd" class="s2" d="m176.41 274.55h48.6"/>
					<path fill-rule="evenodd" class="s2" d="m176.41 280.87h48.6"/>
					<path fill-rule="evenodd" class="s2" d="m176.41 287.19h48.6"/>
				</g>
				<path fill-rule="evenodd" class="s6" d="m145.13 238.18h111.16v10.77h-111.16z"/>
			</g>
		</g>
		<g>
			<g>
				<g>
					<path class="s10" d="m579.5 186.65h-38.01c-4.86 0-8.8 3.94-8.8 8.8v15.51 5.43 17.01l8.94-8.21h37.87c4.86 0 8.8-3.94 8.8-8.8v-20.94c0-4.86-3.94-8.8-8.8-8.8z"/>
				</g>
				<g>
					<path class="s10" d="m590.46 174.13h-38.02c-4.85 0-8.79 3.94-8.79 8.8v15.52 5.42 17.01l8.94-8.21h37.87c4.85 0 8.79-3.94 8.79-8.8v-20.94c0-4.86-3.94-8.8-8.79-8.8z"/>
					<g>
						<path class="s4" d="m562.75 194.1c0 2.11-1.71 3.82-3.82 3.82-2.11 0-3.83-1.71-3.83-3.82 0-2.11 1.72-3.82 3.83-3.82 2.11 0 3.82 1.71 3.82 3.82z"/>
						<path class="s4" d="m576.05 194.1c0 2.11-1.71 3.82-3.82 3.82-2.11 0-3.82-1.71-3.82-3.82 0-2.11 1.71-3.82 3.82-3.82 2.11 0 3.82 1.71 3.82 3.82z"/>
						<path class="s4" d="m589.35 194.1c0 2.11-1.71 3.82-3.82 3.82-2.11 0-3.82-1.71-3.82-3.82 0-2.11 1.71-3.82 3.82-3.82 2.11 0 3.82 1.71 3.82 3.82z"/>
					</g>
				</g>
			</g>
			<g>
				<path class="s10" d="m529.79 125.45h-32.75c-4.18 0-7.57 3.39-7.57 7.57v13.37 4.68 14.65l7.7-7.08h32.62c4.18 0 7.58-3.39 7.58-7.57v-18.05c0-4.18-3.4-7.57-7.58-7.57z"/>
				<g>
					<path class="s4" d="m505.92 142.65c0 1.82-1.47 3.29-3.29 3.29-1.82 0-3.29-1.47-3.29-3.29 0-1.82 1.47-3.3 3.29-3.3 1.82 0 3.29 1.48 3.29 3.3z"/>
					<path fill-rule="evenodd" class="s4" d="m514.09 145.94c-1.82 0-3.3-1.47-3.3-3.29 0-1.82 1.48-3.3 3.3-3.3 1.82 0 3.29 1.48 3.29 3.3 0 1.82-1.47 3.29-3.29 3.29z"/>
					<path fill-rule="evenodd" class="s4" d="m525.54 145.94c-1.82 0-3.29-1.47-3.29-3.29 0-1.82 1.47-3.3 3.29-3.3 1.83 0 3.3 1.48 3.3 3.3 0 1.82-1.47 3.29-3.3 3.29z"/>
				</g>
			</g>
			<g>
				<path fill-rule="evenodd" class="s10" d="m576.71 98.69h64.35v38.51h-64.35z"/>
				<path fill-rule="evenodd" class="s2" d="m576.71 98.69l31.88 27.59 32.47-27.59"/>
				<path fill-rule="evenodd" class="s2" d="m576.71 137.2l20.47-20.79"/>
				<path fill-rule="evenodd" class="s2" d="m620.21 116.42l20.85 20.78"/>
			</g>
			<g>
				<path fill-rule="evenodd" class="s10" d="m149.13 61.64h48.48v29.01h-48.48z"/>
				<path fill-rule="evenodd" class="s2" d="m149.13 61.64l24.02 20.79 24.47-20.79"/>
				<path fill-rule="evenodd" class="s2" d="m149.13 90.65l15.43-15.66"/>
				<path fill-rule="evenodd" class="s2" d="m181.9 74.99l15.71 15.66"/>
			</g>
		</g>
		<g>
			<g>
				<g>
					<path class="s10" d="m225.43 221.48c0 8.16 6.61 14.77 14.77 14.77 8.15 0 14.77-6.61 14.77-14.77 0-8.16-6.62-14.77-14.77-14.77-8.16 0-14.77 6.61-14.77 14.77zm5.43 0c0-5.15 4.18-9.33 9.34-9.33 5.15 0 9.33 4.18 9.33 9.33 0 5.16-4.18 9.34-9.33 9.34-5.16 0-9.34-4.18-9.34-9.34z"/>
					<path class="s10" d="m244.88 245.19h30.1c2.93 0 5.3-2.38 5.3-5.31v-36.28c0-2.93-2.37-5.3-5.3-5.3h-30.1c-2.93 0-5.31 2.37-5.31 5.3v36.28c0 2.93 2.38 5.31 5.31 5.31z"/>
					<path fill-rule="evenodd" class="s15" d="m259.93 208.67l-4.07 7.86-9.09 1.26 6.58 6.11-1.55 8.63 8.13-4.08 8.13 4.08-1.56-8.63 6.58-6.11-9.09-1.26z"/>
				</g>
				<path class="s2" d="m259.29 193.79c11.68-3.59 10.73-20.54 0-28.22-9.04-6.47-1.45-9.32-4.4-26.65-2.95-17.32-18.78-25.91-37.33-17.46-18.55 8.46-21.05 39.39-0.05 48.58 14.99 6.56 23.13-3.42 24.1 12.12 0.43 6.98 7.9 14.63 17.68 11.63z"/>
			</g>
			<g>
				<path class="s4" d="m310.09 270.85h-99.39c-3.72 0-6.73-3.01-6.73-6.73v-12.89c0-3.71 3.01-6.72 6.73-6.72h99.39c3.71 0 6.72 3.01 6.72 6.72v12.89c0 3.72-3.01 6.73-6.72 6.73z"/>
				<path class="s8" d="m304.63 263c-2.94 0-5.33-2.38-5.33-5.32 0-2.94 2.39-5.32 5.33-5.32 2.93 0 5.32 2.38 5.32 5.32 0 2.94-2.39 5.32-5.32 5.32z"/>
				<path class="s1" d="m271.39 263.54h-53.38c-2.17 0-3.93-1.76-3.93-3.93v-3.86c0-2.18 1.76-3.94 3.93-3.94h53.38c2.18 0 3.94 1.76 3.94 3.94v3.86c0 2.17-1.76 3.93-3.94 3.93z"/>
			</g>
			<g>
				<path class="s4" d="m371.92 262.4h49.5v8.77h-49.5c-2.42 0-4.39-1.96-4.39-4.38 0-2.42 1.97-4.39 4.39-4.39z"/>
				<g>
					<path class="s4" d="m512.15 271.17h-92.44c-2.52 0-4.57-2.04-4.57-4.57v-59.06c0-2.52 2.05-4.57 4.57-4.57h92.44c2.52 0 4.57 2.05 4.57 4.57v59.06c0 2.53-2.05 4.57-4.57 4.57z"/>
					<path fill-rule="evenodd" class="s16" d="m468.38 245.14c-4.51 1.88-9.68-0.25-11.56-4.76-1.88-4.51 0.24-9.68 4.76-11.56 4.51-1.89 9.68 0.24 11.56 4.75 1.88 4.52-0.24 9.69-4.76 11.57z"/>
				</g>
			</g>
			<g>
				<path fill-rule="evenodd" class="s10" d="m279.94 274.03h9.88v182.09h-9.88z"/>
				<path fill-rule="evenodd" class="s10" d="m541.9 274.49h9.87v182.1h-9.87z"/>
				<path fill-rule="evenodd" class="s10" d="m211.93 271.17h407.86v11.24h-407.86z"/>
			</g>
		</g>
	</g>
</svg>